<svg xmlns="http://www.w3.org/2000/svg" width="40" height="40"><path fill="#555" fill-rule="evenodd" d="M0 20C0 8.954 8.954 0 20 0s20 8.954 20 20-8.954 20-20 20S0 31.046 0 20zm14.134-3.435H9.6v13.618h4.533V16.565zm.298-4.213c-.03-1.335-.984-2.352-2.534-2.352-1.551 0-2.565 1.017-2.565 2.352 0 1.308.984 2.354 2.506 2.354h.029c1.58 0 2.564-1.046 2.564-2.354zM30.48 22.375c0-4.183-2.235-6.13-5.218-6.13-2.406 0-3.484 1.322-4.085 2.25v-1.93h-4.533c.06 1.278 0 13.618 0 13.618h4.533v-7.605c0-.407.029-.813.149-1.105.327-.813 1.073-1.654 2.325-1.654 1.641 0 2.297 1.248 2.297 3.078v7.286h4.532v-7.808z"/></svg>