<svg xmlns="http://www.w3.org/2000/svg" width="40" height="40"><g fill="#555" fill-rule="evenodd"><path d="M0 20C0 8.954 8.954 0 20 0s20 8.954 20 20-8.954 20-20 20S0 31.046 0 20zM20.001 9.333c-2.897 0-3.26.013-4.398.065-1.136.052-1.911.232-2.59.495a5.223 5.223 0 0 0-1.889 1.23 5.236 5.236 0 0 0-1.23 1.89c-.265.678-.445 1.453-.496 2.589-.051 1.137-.065 1.501-.065 4.398s.013 3.26.065 4.397c.052 1.136.232 1.911.495 2.59a5.227 5.227 0 0 0 1.23 1.889 5.223 5.223 0 0 0 1.89 1.23c.678.265 1.453.444 2.589.496 1.138.052 1.501.065 4.398.065s3.26-.013 4.397-.065c1.136-.052 1.912-.231 2.59-.495a5.219 5.219 0 0 0 1.889-1.231 5.236 5.236 0 0 0 1.23-1.89c.263-.678.443-1.453.496-2.589.051-1.137.065-1.5.065-4.397s-.014-3.26-.065-4.398c-.053-1.136-.233-1.91-.495-2.59a5.235 5.235 0 0 0-1.231-1.889 5.213 5.213 0 0 0-1.89-1.23c-.68-.263-1.455-.443-2.59-.495-1.138-.052-1.5-.065-4.398-.065H20z"/><path d="M19.044 11.256h.957c2.848 0 3.186.01 4.31.06 1.04.048 1.605.222 1.98.368.499.194.853.425 1.227.798.373.373.604.729.798 1.227.146.375.32.94.367 1.98.051 1.124.062 1.462.062 4.309 0 2.846-.01 3.184-.062 4.309-.047 1.04-.221 1.604-.367 1.98a3.298 3.298 0 0 1-.798 1.225 3.299 3.299 0 0 1-1.226.798c-.376.146-.94.32-1.98.367-1.125.051-1.463.063-4.311.063s-3.186-.012-4.31-.063c-1.04-.048-1.605-.221-1.981-.367a3.304 3.304 0 0 1-1.227-.798 3.306 3.306 0 0 1-.798-1.226c-.146-.376-.32-.94-.367-1.98-.051-1.125-.062-1.463-.062-4.311s.01-3.184.062-4.309c.047-1.04.221-1.604.367-1.98.193-.498.425-.854.798-1.227a3.31 3.31 0 0 1 1.227-.798c.376-.147.94-.32 1.98-.368.985-.045 1.366-.058 3.354-.06v.003zm6.65 1.77a1.28 1.28 0 1 0 0 2.561 1.28 1.28 0 0 0 0-2.56zm-5.693 1.496a5.478 5.478 0 1 0 0 10.956 5.478 5.478 0 0 0 0-10.956z"/><path d="M20.001 16.445a3.556 3.556 0 1 1 0 7.11 3.556 3.556 0 0 1 0-7.11z"/></g></svg>