<svg xmlns="http://www.w3.org/2000/svg" width="120" height="120"><g fill="none" fill-rule="evenodd"><path d="M0 0h120v120H0z"/><g stroke="#555"><path stroke-linecap="round" stroke-linejoin="round" stroke-width="3.645" d="M29.758 10.91h35.485m-14.557 9.642H86.17m-50.042-5.05H94.31c2.72 0 7.147 1.236 9.839 4.378 2.692 3.142 3.48 6.818 3.48 9.356V66.57c-.26 2.97-.617 5.4-1.072 7.287-.455 1.887-1.417 4.927-2.887 9.12m-7.579 10.539c-8.799 9.907-20.162 15.118-34.088 15.633-9.665.358-24.596-3.027-34.816-14.578-10.22-11.55-12.593-23.106-12.593-29.063v-26.12"/><path stroke-width="4.556" d="M90.94 71.274c-.596 1.68-1.796 3.305-3.601 4.876-2.709 2.355-6.716 4.022-11.577 4.022-6.22 0-10.987-2.966-14.3-8.898m-30.935 0c.595 1.68 1.795 3.305 3.6 4.876 2.709 2.355 7.627 4.022 12.487 4.022 6.22 0 10.987-2.966 14.3-8.898"/><path fill="#555" stroke-width=".5" d="M93.594 69.389c-2.138.315-3.74.486-4.805.511-.527.013-2.789.253-5.252-1.231-3.693-2.224-5.957-5.363-10.335-5.363-.941 0-6.07-.124-6.07 5.756 0 3.92 2.023 6.193 6.07 6.819 1.458.207 3.046.31 4.763.31s3.4-.103 5.05-.31h7.13c.88-.763 1.624-1.717 2.234-2.863a11.514 11.514 0 0 0 1.215-3.63zm-65.885-.026c2.139.315 3.74.486 4.805.511.528.013 3.7.253 6.163-1.23 3.692-2.225 5.957-5.363 10.334-5.363.941 0 6.07-.124 6.07 5.755 0 3.92-2.023 6.193-6.07 6.82-1.458.206-3.046.31-4.763.31s-3.4-.104-5.05-.31H31.16c-.88-.764-1.625-1.718-2.234-2.864a11.514 11.514 0 0 1-1.216-3.63zm33.431-3.119c-.06 0-.929 1.953-1.324 2.703-.234.445-.662 1.22-1.286 2.327h5.32c-.645-1.07-1.078-1.817-1.3-2.242-.971-1.86-1.348-2.788-1.41-2.788zm15.305-9.417c3.015 0 5.46-2.466 5.46-5.509 0-3.042-2.445-5.509-5.46-5.509s-5.46 2.467-5.46 5.51c0 3.042 2.445 5.508 5.46 5.508zm-34.99-2.754a5.531 5.531 0 0 1-.495-2.296c0-3.042 2.444-5.509 5.46-5.509 3.014 0 5.458 2.467 5.458 5.51a5.53 5.53 0 0 1-.495 2.295c-.862-1.897-2.76-3.214-4.964-3.214-2.203 0-4.102 1.317-4.964 3.214z"/><path fill="#555" fill-rule="nonzero" stroke-width=".911" d="M14.577 40.295l5.305 6.622a1.27 1.27 0 0 0 1.785 0 1.243 1.243 0 0 0 0-1.77l-6.197-7.506a1.27 1.27 0 0 0-1.786 0l-6.198 7.507a1.243 1.243 0 0 0 0 1.77 1.27 1.27 0 0 0 1.786 0l5.305-6.623zm88.581 42.625l-2.01-8.244a1.27 1.27 0 0 0-1.618-.754 1.243 1.243 0 0 0-.747 1.603l2.444 9.422c.24.652.965.99 1.618.755l8.79-4.184c.653-.234.988-.952.748-1.603a1.27 1.27 0 0 0-1.619-.755l-7.606 3.76z"/></g></g></svg>