<svg xmlns="http://www.w3.org/2000/svg" width="383" height="445"><g fill="none" fill-rule="evenodd"><path fill="#FFF" d="M119.11 414.516c38.4-26.022 62.632-47.137 72.696-63.346 10.065-16.209 17.404-34.598 22.02-55.166 21.521 5.507 38.527 16.624 51.016 33.35 12.49 16.725 23.295 47.94 32.416 93.646h5.551c3.952-53.502-1.932-92.693-17.651-117.572-15.72-24.88-33.592-42.022-53.618-51.428l-78.262 23.634c11.904 20.2 15.715 39.608 11.435 58.225-4.281 18.617-21.185 43.286-50.713 74.005l5.11 4.652z"/><path fill="#000" d="M126 425.299l-1.06-5.902L113.488 409 111 411.966 126 426m188.284-4H297v4h21z"/><path fill="#F7BDAC" d="M145.084 172.042h-11.502l-6.327-11.846c-6.105 2.506-11.494 3.634-16.168 3.383-7.011-.376-17.602-3.466-21.344-15.58-2.495-8.076-3.743-21.13-3.743-39.16 13.991-4.99 22.056-7.595 24.195-7.814 3.207-.328 10.402 2.651 12.137 5.018 1.158 1.577 2.684 6.178 4.579 13.8l-1.84 2.949 20.013 49.25z"/><path fill="#000" d="M125.883 121l19.265-8.5c1.713-10.79.843-20.385-2.609-28.787-3.451-8.402-14.145-13.153-32.08-14.254-1.549 0-2.535.496-2.959 1.488-.864 2.021-.56 3.654-.56 3.654s-3.139-2.6-9.932-5.142C92.293 67.694 88.06 67.207 84.31 68c-5.969 2.046-9.146 5.059-9.532 9.04-.386 3.98 1.546 8.526 5.797 13.636C72.858 93.753 69 97.182 69 100.96c0 3.78 5.688 6.482 17.063 8.108 13.229-4.764 22.443-6.43 27.642-4.998 5.2 1.432 9.259 7.075 12.178 16.929z"/><path fill="#555" d="M132.969 68L174 48.87 154.115 0 114 21.943z"/><path fill="#000" d="M174.045 49L196 43.626l-18.582-42.4L154 0z"/><path fill="#000" d="M196 43l-21.845 5.472L133 68l26.09-7.963z"/><path fill="#555" d="M132.969 68L174 48.87 154.115 0 114 21.943z"/><path fill="#686868" d="M174.045 49L196 43.626l-18.582-42.4L154 0z"/><path fill="#000" d="M196 43l-21.845 5.472L133 68l26.09-7.963z"/><g transform="rotate(20 -833.619 496.979)"><rect width="11" height="91" x="33.347" y="2.981" fill="#000" rx="5.5" transform="rotate(-51 38.847 48.48)"/><path fill="#000" d="M54.484 2.452a5.5 5.5 0 0 1 6.212 4.68l7.47 53.154a5.5 5.5 0 0 1-10.893 1.53l-7.47-53.152a5.5 5.5 0 0 1 4.681-6.212zm.19 1.94a3.674 3.674 0 0 0-3.128 4.15l5.422 38.58a3.674 3.674 0 0 0 7.277-1.023l-5.422-38.58a3.674 3.674 0 0 0-4.15-3.126z"/><path fill="#000" d="M36.197 31.546a5.5 5.5 0 0 1 7.736-.813l.257.208L67.232 49.6a5.5 5.5 0 0 1-6.923 8.549L37.01 39.28a5.5 5.5 0 0 1-.813-7.735z"/><rect width="21" height="25" x="63" y="14" fill="#555" rx="8"/><rect width="5" height="19.81" x="77.684" y="18.879" fill="#000" rx="2.5"/><rect width="7" height="4" x="70.402" y="11.282" fill="#555" rx="2"/><path fill="#555" d="M49.969 96L91 76.87 71.115 28 31 49.943z"/><path fill="#686868" d="M91.045 77L113 71.626l-18.582-42.4L71 28z"/><path fill="#000" d="M113.008 71.617l-21.853 4.855L50 96l26.09-7.963z"/></g><g transform="translate(119)"><rect width="21" height="25" x="61.642" y="2.837" fill="#000" rx="8" transform="rotate(-20 72.142 15.337)"/><rect width="7" height="4" x="63.473" y="1.076" fill="#000" rx="2" transform="rotate(-20 66.973 3.076)"/><path fill="#555" d="M36.04 142L114 105.429 76.22 12 0 53.95z"/><path fill="#686868" d="M113.704 105L155 94.8l-34.952-80.474L76 12z"/><path fill="#000" d="M156 95l-41.61 10.288L36 142l49.696-14.97z"/></g><g transform="translate(122 35)"><rect width="11" height="91" x="55.5" y="24.408" fill="#000" rx="5.5" transform="rotate(-51 61 69.908)"/><rect width="11" height="91" x="68.586" y=".538" fill="#000" rx="5.5" transform="rotate(-17 74.086 46.038)"/><rect width="12" height="25" x="134" y="3" fill="#000" rx="6"/><rect width="6" height="3" x="137" y="1" fill="#000" rx="1.5"/><path fill="#555" d="M61 233.67L191 173 127.999 18.006.9 87.598z"/><path fill="#686868" d="M191 173l69.003-17L201.6 21.883l-73.602-3.877z"/><path fill="#000" d="M260.003 156L191 173 61 233.666l82.414-24.738z"/></g><path fill="#FFF" d="M127.475 160c-6.33 1.627-11.769 5.605-16.315 11.933-6.82 9.491-10.557 34.392 2.879 53.966 8.957 13.05 22.028 30.297 39.211 51.741l29.75-8.978-11.126-27.037c7.363 3.072 15.61 5.271 24.739 6.597 9.129 1.326 19.206 1.988 30.232 1.988l6.155-8.585c-15.298-1.904-27.897-4.087-37.797-6.55-9.9-2.463-20.53-7.176-31.889-14.137l-20.163-49.005h-9.548L127.475 160z"/><path fill="#F7BDAC" d="M233.003 241.647c3.139-1.233 5.123-2.62 5.954-4.163.866-1.61 4.191-4.652 9.975-9.125.083 2.713.205 4.632.365 5.757a14 14 0 0 0 .932 3.368c2.64-.426 4.508-.744 5.606-.955 1.098-.21 4.445-.894 10.042-2.05-2.946 4.555-6.846 8.217-11.699 10.987-4.853 2.769-10.628 4.356-17.324 4.762H226.84l6.162-8.58z"/><path fill="#FFF600" d="M8 170h95.007l10.044-10 9.941 10H134a8 8 0 0 1 8 8v32a8 8 0 0 1-8 8H8a8 8 0 0 1-8-8v-32a8 8 0 0 1 8-8z"/><path fill="#000" d="M123.28 188.41a.593.593 0 0 1 .162-.411.577.577 0 0 1 .18-.131.677.677 0 0 1 .219-.061c.24 0 .455-.047.648-.14a1.75 1.75 0 0 0 .511-.374c.149-.157.28-.336.393-.54.114-.202.211-.414.292-.635.081-.221.15-.445.204-.67.055-.225.103-.437.143-.636l1.205.256a14.74 14.74 0 0 0-.255.873 7.523 7.523 0 0 0-.116.542 2.983 2.983 0 0 0-.049.514c0 .11.01.216.03.32a.89.89 0 0 0 .104.277.545.545 0 0 0 .201.195.643.643 0 0 0 .323.073.956.956 0 0 0 .557-.17c.164-.114.31-.262.438-.445s.238-.39.332-.62a6.92 6.92 0 0 0 .24-.707c.067-.24.123-.472.168-.697.044-.225.079-.421.103-.587l1.169.213-.034.198-.079.48c-.03.19-.058.39-.082.603a5.071 5.071 0 0 0-.037.57c0 .15.012.292.034.428.022.136.059.256.11.36.05.103.117.188.2.255a.568.568 0 0 0 .308.119c.186.024.342.022.465-.006a.945.945 0 0 0 .296-.113.527.527 0 0 0 .16-.15.9.9 0 0 0 .07-.115h-.005a.875.875 0 0 0 .119-.304 1.92 1.92 0 0 0 .033-.365c0-.232-.031-.481-.094-.749a9.558 9.558 0 0 0-.5-1.507 10.738 10.738 0 0 0-.24-.526l1.065-.56.116.234a12.244 12.244 0 0 1 .423.995 8.026 8.026 0 0 1 .377 1.382c.043.244.064.481.064.712 0 .35-.048.665-.146.947a1.901 1.901 0 0 1-.438.721c-.195.2-.44.352-.734.46-.294.107-.638.16-1.031.155-.159 0-.315-.024-.469-.073a2.17 2.17 0 0 1-.444-.198 2.317 2.317 0 0 1-.396-.292 1.922 1.922 0 0 1-.31-.362c-.244.284-.52.51-.828.675a1.989 1.989 0 0 1-2.304-.268 1.193 1.193 0 0 1-.277-.395c-.244.256-.52.459-.828.609-.308.15-.678.229-1.108.237h-.097a.602.602 0 0 1-.399-.183.609.609 0 0 1-.161-.414zm6.496-6.647l.986-.986.998.998-.986.986-.998-.998zm-2.673-.006l.987-.993.998.999-.986.992-.999-.998zm1.467-1.833l.901-.9.907.906-.9.901-.908-.907zm-10.603 12.174a7.854 7.854 0 0 0 1.68-.523 6.02 6.02 0 0 0 1.272-.755c.353-.28.632-.577.837-.892.205-.314.33-.624.374-.928-.17.004-.372.005-.605.003a8.366 8.366 0 0 1-.685-.033c-.88-.057-1.532-.345-1.954-.865a1.745 1.745 0 0 1-.356-.815 3.082 3.082 0 0 1-.006-.947 3.87 3.87 0 0 1 .259-.937c.125-.303.274-.563.444-.783a2.19 2.19 0 0 1 .67-.58c.243-.133.495-.199.754-.199.577 0 1.106.26 1.589.78.17.19.325.405.463.645s.255.496.353.77a5.794 5.794 0 0 1 .328 1.768h.457a.611.611 0 0 1 .429.173.63.63 0 0 1 .13.192.578.578 0 0 1-.13.655.588.588 0 0 1-.43.173h-.547a4.598 4.598 0 0 1-.66 1.628 5.424 5.424 0 0 1-1.157 1.27 6.271 6.271 0 0 1-1.513.888 7.521 7.521 0 0 1-1.716.487l-.28-1.175zm2.684-7.055a.505.505 0 0 0-.334.137 1.4 1.4 0 0 0-.284.35 2.393 2.393 0 0 0-.21.478 2.939 2.939 0 0 0-.118.524 1.821 1.821 0 0 0-.003.48.697.697 0 0 0 .365.548c.093.051.19.092.292.122.102.03.202.053.301.067.1.014.186.023.26.028a8.583 8.583 0 0 0 1.26-.007 4.675 4.675 0 0 0-.092-.733 4.352 4.352 0 0 0-.186-.648 3.238 3.238 0 0 0-.557-.956 4.579 4.579 0 0 0-.137-.13 1.27 1.27 0 0 0-.164-.129.911.911 0 0 0-.189-.094.593.593 0 0 0-.204-.037zm-13.196 3.36c0-.17.059-.312.176-.426a.599.599 0 0 1 .432-.17h1.206a8.61 8.61 0 0 0 1.622-.155c.538-.104 1.068-.24 1.592-.411.523-.17 1.034-.365 1.534-.584.499-.22.98-.445 1.442-.676a11.326 11.326 0 0 1-.8-.317c-.258-.113-.51-.229-.758-.347l-.557-.258a9.51 9.51 0 0 0-.52-.222 4.064 4.064 0 0 0-.478-.156 1.71 1.71 0 0 0-.417-.058c-.167 0-.325.037-.475.11-.15.073-.29.165-.417.277a2.728 2.728 0 0 0-.344.36 4.285 4.285 0 0 0-.487.757l-1.096-.493.052-.107a4.225 4.225 0 0 1 .344-.578c.085-.124.183-.25.292-.38.313-.382.649-.668 1.008-.859a2.37 2.37 0 0 1 1.123-.286c.194 0 .393.023.596.067.203.045.408.105.615.18.207.075.417.161.63.259.213.097.43.196.648.298.24.113.482.225.728.335.245.11.492.208.74.295.247.087.494.157.742.21.247.053.497.079.749.079l.23 1.156a18.08 18.08 0 0 0-.848.38c-.282.137-.573.28-.874.43-.446.223-.926.446-1.44.67-.513.223-1.05.425-1.612.605s-1.144.328-1.744.442a9.77 9.77 0 0 1-1.82.17h-1.206a.611.611 0 0 1-.429-.173.63.63 0 0 1-.13-.192.563.563 0 0 1-.05-.232zm5.21-7.225l-.992.992-.998-.998.992-.992.998.998zm-9.806 11.79c-.353 0-.718-.017-1.096-.051a5.478 5.478 0 0 1-1.09-.21 3.658 3.658 0 0 1-.96-.447 2.297 2.297 0 0 1-.72-.764c-.437-.642-.632-1.473-.583-2.496a9.162 9.162 0 0 1 .298-1.82c.17-.657.416-1.374.736-2.149l1.114.45c-.52 1.275-.827 2.36-.922 3.257-.095.897.021 1.595.35 2.094.166.24.372.423.618.551.245.128.501.22.767.277.266.057.53.09.791.097.262.009.494.013.697.013a7.812 7.812 0 0 0 1.97-.301c.261-.076.498-.168.711-.278.213-.11.387-.24.52-.39a.757.757 0 0 0 .202-.523.33.33 0 0 0-.067-.173.98.98 0 0 0-.216-.216 2.822 2.822 0 0 0-.387-.244 4.609 4.609 0 0 0-.584-.255 12.759 12.759 0 0 0-.423-.137 7.232 7.232 0 0 0-.393-.11l-.335-.082a5.292 5.292 0 0 0-.25-.055l-.133-.024.091-1.181 4.687.006c.167 0 .309.057.426.17a.568.568 0 0 1 .177.426.591.591 0 0 1-.603.597h-1.455c.138.114.251.228.338.344.087.116.155.228.204.338.049.11.081.215.098.316a1.854 1.854 0 0 1-.213 1.2 2.437 2.437 0 0 1-.61.7 3.713 3.713 0 0 1-.857.502c-.321.136-.65.246-.99.331a7.469 7.469 0 0 1-1.007.183 8.331 8.331 0 0 1-.9.055zm-16.69-4.565a.56.56 0 0 1 .17-.416.622.622 0 0 1 .42-.18h.006c.341 0 .63-.056.865-.167.235-.112.44-.26.614-.445a3.04 3.04 0 0 0 .457-.633c.13-.237.258-.482.383-.733.106-.22.211-.428.317-.627.105-.2.227-.382.365-.548.365-.446.808-.67 1.327-.67.613 0 1.122.246 1.528.737.325.39.52.878.584 1.467.04.28.047.554.018.822a3.106 3.106 0 0 1-.176.76 2.058 2.058 0 0 1-.469.722 1.53 1.53 0 0 1-.675.386c-.455.122-.968.067-1.54-.164a5.501 5.501 0 0 1-1.236-.706.501.501 0 0 1-.06.055c-.606.625-1.373.937-2.302.937h-.006a.566.566 0 0 1-.42-.173.58.58 0 0 1-.17-.424zm3.658-1.381c.37.272.706.468 1.01.59.305.122.558.154.761.098a.389.389 0 0 0 .201-.14 1.08 1.08 0 0 0 .168-.299 1.73 1.73 0 0 0 .097-.42 2.072 2.072 0 0 0-.01-.511 2.183 2.183 0 0 0-.22-.642 1.206 1.206 0 0 0-.175-.25.881.881 0 0 0-.243-.185.687.687 0 0 0-.323-.073.408.408 0 0 0-.228.07.862.862 0 0 0-.213.216 3.225 3.225 0 0 0-.225.365c-.08.146-.17.318-.271.517l-.329.664zm-8.942 1.381a.588.588 0 0 1 .597-.602h.462c.341 0 .668-.02.98-.061.313-.04.588-.116.825-.225.238-.11.425-.259.563-.448.138-.188.201-.43.189-.727a7.998 7.998 0 0 0-.058-.706 5.621 5.621 0 0 0-.18-.834l1.139-.323a9.822 9.822 0 0 1 .292 1.9c.008.15.026.308.055.474.028.167.079.32.152.463.073.142.173.26.301.353.128.093.295.14.502.14.17 0 .315.057.433.17a.568.568 0 0 1 .176.426.557.557 0 0 1-.049.235.642.642 0 0 1-.32.316.573.573 0 0 1-.227.046c-.41 0-.75-.074-1.017-.222a2.08 2.08 0 0 1-.657-.557 1.85 1.85 0 0 1-.566.362c-.232.1-.486.18-.764.24-.278.061-.57.106-.874.134a9.628 9.628 0 0 1-.895.043h-.462a.578.578 0 0 1-.426-.17.578.578 0 0 1-.17-.427zm2.532 2.91l-.986.986-.998-.992.986-.992.998.998zm2.496.006l-.986.992-.998-.998.986-.986.998.992zm-12.344-2.916c0-.08.016-.158.048-.23a.63.63 0 0 1 .131-.193.588.588 0 0 1 .423-.173h2.064c.162 0 .325-.033.49-.097a1.624 1.624 0 0 0 .773-.637.956.956 0 0 0 .149-.429 1.88 1.88 0 0 0-.088-.727 4.011 4.011 0 0 0-.338-.77 6.687 6.687 0 0 0-.511-.773 9.733 9.733 0 0 0-1.254-1.36c-.215-.193-.414-.36-.597-.503l.158-1.345 5.381-2.319.469 1.108-4.827 2.027c.308.247.58.496.813.745a8.653 8.653 0 0 1 1.132 1.507c.148.252.29.503.426.755.136.251.27.505.405.76.134.256.278.514.432.774.118.194.243.37.377.526.134.156.28.29.435.399a1.993 1.993 0 0 0 1.142.359h.255c.17 0 .313.058.426.173a.58.58 0 0 1 .17.423.578.578 0 0 1-.597.597h-.047c-.292 0-.55-.018-.77-.055a4.38 4.38 0 0 1-.649-.158 2.676 2.676 0 0 1-.797-.463 4.24 4.24 0 0 1-.64-.657c-.141.26-.316.487-.523.682a2.355 2.355 0 0 1-.885.493c-.16.048-.324.085-.49.11-.167.024-.333.04-.5.048h-1.984a.591.591 0 0 1-.426-.17.568.568 0 0 1-.176-.427zm-4.267 0a.58.58 0 0 1 .17-.423.573.573 0 0 1 .426-.173h.104c.681 0 1.177-.123 1.485-.368.308-.246.463-.61.463-1.093a4.912 4.912 0 0 0-.125-1.093 7.334 7.334 0 0 0-.113-.435l1.145-.322a6.414 6.414 0 0 1 .18.827c.021.147.04.305.057.475.016.17.032.363.049.579.012.15.032.308.06.474.029.167.08.32.153.463.073.142.173.26.301.353.128.093.295.14.502.14a.595.595 0 0 1 .554.365c.033.073.049.15.049.231a.557.557 0 0 1-.049.235.642.642 0 0 1-.32.316.573.573 0 0 1-.228.046c-.203 0-.388-.018-.557-.055a1.98 1.98 0 0 1-.456-.155 1.7 1.7 0 0 1-.365-.24 2.152 2.152 0 0 1-.29-.305c-.255.252-.587.44-.995.566-.408.126-.908.189-1.5.189h-.104a.578.578 0 0 1-.426-.17.578.578 0 0 1-.17-.427zm3.901-6.397l-.992.992-.998-.998.992-.992.998.998zm-8.54 10.963c-.353 0-.718-.018-1.095-.052a5.478 5.478 0 0 1-1.09-.21 3.658 3.658 0 0 1-.961-.447 2.297 2.297 0 0 1-.719-.764c-.438-.642-.633-1.473-.584-2.496a9.162 9.162 0 0 1 .298-1.82c.17-.657.416-1.374.737-2.149l1.114.45c-.52 1.275-.827 2.36-.923 3.257-.095.897.022 1.595.35 2.094.167.24.373.423.618.551.246.128.501.22.767.277.266.057.53.09.792.097.261.009.494.013.696.013a7.812 7.812 0 0 0 1.97-.301 3.97 3.97 0 0 0 .712-.278c.213-.11.386-.24.52-.39a.76.76 0 0 0 .201-.523.33.33 0 0 0-.067-.173.98.98 0 0 0-.216-.216 2.822 2.822 0 0 0-.386-.244 4.609 4.609 0 0 0-.585-.255 12.758 12.758 0 0 0-.423-.137 7.21 7.21 0 0 0-.392-.11l-.335-.082a5.293 5.293 0 0 0-.25-.055l-.134-.024.092-1.181 4.687.006c.166 0 .308.057.426.17a.568.568 0 0 1 .176.426.591.591 0 0 1-.603.597h-1.454c.138.114.25.228.338.344.087.116.155.228.203.338.05.11.082.215.098.316a1.854 1.854 0 0 1-.213 1.2 2.437 2.437 0 0 1-.609.7 3.713 3.713 0 0 1-.858.502 6.65 6.65 0 0 1-.99.331 7.469 7.469 0 0 1-1.007.183 8.331 8.331 0 0 1-.9.055zm-5.502-4.876c0 .187-.08.371-.238.554a1.028 1.028 0 0 1-.803.347c-.373 0-.666-.14-.877-.42-.194-.256-.292-.576-.292-.962 0-.953.483-1.773 1.449-2.459.081.057.167.122.259.195l.295.237c-.767.556-1.15 1.126-1.15 1.71.105-.08.28-.121.523-.121.515.073.793.38.834.919zm-13.197.31c0-.17.058-.312.174-.426a.58.58 0 0 1 .423-.17h.676c.142.004.296.005.462.003a6.114 6.114 0 0 0 1.008-.097c.164-.03.315-.073.453-.128.138-.055.26-.123.365-.204a.78.78 0 0 0 .238-.292c.08-.175.104-.423.07-.746a6.311 6.311 0 0 0-.247-1.13 11.967 11.967 0 0 0-.329-.845 15.504 15.504 0 0 0-.2-.457l1.083-.535c0 .004.02.045.058.124.038.08.086.186.143.32.057.134.12.29.189.466.069.176.133.364.194.563.378 1.164.424 2.073.14 2.727-.288.653-.8 1.083-1.534 1.29-.11.033-.25.058-.42.076-.17.018-.344.032-.523.04-.179.008-.349.013-.511.015l-.378.003h-.937a.58.58 0 0 1-.423-.17.573.573 0 0 1-.174-.427zm4.2 1.73l.986.985-.998.999-.986-.987.998-.998zm-2.66.005l.986.992-.998.999-.986-.992.998-.999zm1.352 1.924l.9.9-.906.908-.901-.901.907-.907zm-8.169.036a7.854 7.854 0 0 0 1.68-.523 6.02 6.02 0 0 0 1.272-.755c.353-.28.632-.577.837-.892.205-.314.33-.624.374-.928-.17.004-.372.005-.605.003a8.366 8.366 0 0 1-.685-.033c-.88-.057-1.532-.345-1.954-.865a1.745 1.745 0 0 1-.356-.815 3.082 3.082 0 0 1-.006-.947 3.87 3.87 0 0 1 .259-.937c.125-.303.274-.563.444-.783a2.19 2.19 0 0 1 .67-.58c.243-.133.495-.199.754-.199.577 0 1.106.26 1.589.78.17.19.325.405.463.645s.255.496.353.77a5.794 5.794 0 0 1 .328 1.768h.457a.611.611 0 0 1 .429.173.63.63 0 0 1 .13.192.578.578 0 0 1-.13.655.588.588 0 0 1-.43.173h-.547a4.598 4.598 0 0 1-.66 1.628 5.424 5.424 0 0 1-1.157 1.27 6.271 6.271 0 0 1-1.513.888 7.521 7.521 0 0 1-1.716.487l-.28-1.175zm2.684-7.055a.505.505 0 0 0-.334.137 1.4 1.4 0 0 0-.284.35 2.393 2.393 0 0 0-.21.478 2.939 2.939 0 0 0-.118.524 1.821 1.821 0 0 0-.003.48.697.697 0 0 0 .365.548c.093.051.19.092.292.122.102.03.202.053.301.067.1.014.186.023.26.028a8.583 8.583 0 0 0 1.26-.007 4.675 4.675 0 0 0-.092-.733 4.352 4.352 0 0 0-.186-.648 3.238 3.238 0 0 0-.557-.956 4.579 4.579 0 0 0-.137-.13 1.27 1.27 0 0 0-.164-.129.911.911 0 0 0-.189-.094.593.593 0 0 0-.204-.037zm-9.708 1.894a3.186 3.186 0 0 0-.317.645 5.437 5.437 0 0 0-.323 1.917c0 .402.078.746.232 1.032.154.286.346.52.575.703a2.671 2.671 0 0 0 1.44.56 3.17 3.17 0 0 0 1.308-.207c.22-.085.428-.2.627-.344a2.43 2.43 0 0 0 .527-.523c.152-.205.274-.443.365-.713.091-.27.137-.577.137-.922 0-.32-.005-.7-.015-1.138-.01-.438-.023-.907-.037-1.406-.014-.5-.031-1.014-.052-1.543a773.483 773.483 0 0 0-.219-5.256l1.193-.049a852.844 852.844 0 0 1 .22 5.29 267.612 267.612 0 0 1 .088 2.961c.01.44.015.82.015 1.141 0 .512-.065.965-.195 1.36a3.64 3.64 0 0 1-.52 1.035 3.263 3.263 0 0 1-.749.74 4.216 4.216 0 0 1-1.817.724 4.369 4.369 0 0 1-.876.043 4.093 4.093 0 0 1-1.553-.399 3.878 3.878 0 0 1-.727-.46 2.95 2.95 0 0 1-.603-.654 3.253 3.253 0 0 1-.41-.87 3.598 3.598 0 0 1-.147-1.105 6.747 6.747 0 0 1 .377-2.307c.106-.292.228-.54.366-.742l1.09.487zm-16.332 1.46c0-.08.017-.157.049-.228a.616.616 0 0 1 .572-.362h.055c.243 0 .457-.002.642-.006s.352-.01.502-.018a9.417 9.417 0 0 0 .773-.073 3.978 3.978 0 0 1-.684-.971 2.136 2.136 0 0 1-.229-.922 2.72 2.72 0 0 1 .773-1.878c.175-.18.384-.33.627-.448l-.48-.188.578-1.096 2.118.87c.377.167.742.333 1.093.5.35.166.675.332.973.499.299.166.561.334.789.505.227.17.404.34.53.511.373.516.56 1.043.56 1.583 0 .397-.106.77-.317 1.117-.211.347-.53.634-.956.861l.006-.006a1.748 1.748 0 0 1-.402.173 3.92 3.92 0 0 1-.483.113 6.1 6.1 0 0 1-.977.085 6.66 6.66 0 0 1-1.038-.079 4.725 4.725 0 0 1-1.02-.286 5.81 5.81 0 0 1-.727.164c-.27.045-.553.08-.85.107-.296.026-.598.046-.906.058-.309.012-.607.018-.895.018h-.055a.634.634 0 0 1-.438-.173.578.578 0 0 1-.183-.43zm6.452-2.873c0 .17-.024.355-.073.554a3.735 3.735 0 0 1-.203.6c-.088.2-.194.399-.32.593a3.651 3.651 0 0 1-.42.536 3.13 3.13 0 0 0 .56.043h.292c.309 0 .577-.034.807-.1a1.71 1.71 0 0 0 .566-.272 1.091 1.091 0 0 0 .441-.877c0-.141-.036-.295-.11-.462a2.048 2.048 0 0 0-.325-.502 3.401 3.401 0 0 0-.539-.496 4.16 4.16 0 0 0-.755-.444c.045.154.07.3.073.438.004.138.006.268.006.39zm-1.247-.048c0-.122-.01-.25-.028-.387a1.307 1.307 0 0 0-.115-.39 1.025 1.025 0 0 0-.25-.328.903.903 0 0 0-.423-.198.968.968 0 0 0-.615.064 1.43 1.43 0 0 0-.484.368 1.832 1.832 0 0 0-.32.536 1.58 1.58 0 0 0-.115.572c0 .17.03.333.091.487.061.154.143.3.247.435.103.136.224.264.362.384.138.12.284.23.438.331.207-.093.387-.21.539-.353a2.09 2.09 0 0 0 .673-1.521zm-6.86 2.13c.117.037.231-.055.34-.274a1.66 1.66 0 0 0 .165-.712v-.073l-.006-.08a1.825 1.825 0 0 0-.396-.955c-.227-.292-.46-.438-.7-.438-.243 0-.487.193-.73.578-.207.32-.39.733-.548 1.236.633.304 1.258.544 1.875.718zm2.252.08c.162 0 .302.058.42.176a.57.57 0 0 1 .17.42.584.584 0 0 1-.17.42.574.574 0 0 1-.42.176 1.47 1.47 0 0 1-1.187-.548c-.353.475-.783.625-1.29.45-.723-.247-1.798-.638-3.227-1.174l.213 5.777c-.799.06-1.203.079-1.21.054-.082-1.87-.157-3.664-.226-5.38-.024-.621.113-1.074.414-1.358.3-.292.718-.37 1.254-.231.113-.292.231-.562.353-.81.162-.324.332-.606.511-.846.475-.625.996-.937 1.564-.937.552 0 1.03.227 1.43.682.374.426.61.957.707 1.594.024.187.032.384.024.59.033.289.124.524.274.707.13.158.262.237.396.237zm108.39 18.717a.56.56 0 0 1 .17-.416.622.622 0 0 1 .42-.18h.007c.34 0 .629-.056.864-.167.235-.112.44-.26.615-.445a3.04 3.04 0 0 0 .456-.633c.13-.237.258-.482.384-.733.105-.22.21-.428.316-.627.106-.2.228-.382.366-.548.365-.446.807-.67 1.327-.67.612 0 1.122.246 1.527.737.325.39.52.878.585 1.467.04.28.046.554.018.822a3.106 3.106 0 0 1-.176.76 2.058 2.058 0 0 1-.47.722 1.53 1.53 0 0 1-.675.386c-.454.122-.968.067-1.54-.164a5.501 5.501 0 0 1-1.235-.706.501.501 0 0 1-.061.055c-.605.625-1.372.937-2.301.937h-.006a.566.566 0 0 1-.42-.173.58.58 0 0 1-.17-.424zm3.659-1.381a4.7 4.7 0 0 0 1.01.59c.304.122.558.154.76.098a.389.389 0 0 0 .202-.14c.065-.078.12-.177.167-.299.047-.121.08-.261.097-.42a2.072 2.072 0 0 0-.009-.511 2.183 2.183 0 0 0-.22-.642 1.206 1.206 0 0 0-.175-.25.881.881 0 0 0-.244-.185.687.687 0 0 0-.322-.073.408.408 0 0 0-.229.07.862.862 0 0 0-.213.216c-.07.097-.146.219-.225.365-.079.146-.17.318-.27.517l-.33.664zm-8.942 1.381a.588.588 0 0 1 .596-.602h.463c.34 0 .667-.02.98-.061.312-.04.587-.116.825-.225a1.42 1.42 0 0 0 .563-.448c.138-.188.2-.43.188-.727a7.998 7.998 0 0 0-.057-.706 5.621 5.621 0 0 0-.18-.834l1.138-.323a9.822 9.822 0 0 1 .292 1.9c.009.15.027.308.055.474.029.167.08.32.152.463a.99.99 0 0 0 .302.353c.128.093.295.14.502.14.17 0 .314.057.432.17a.568.568 0 0 1 .177.426.557.557 0 0 1-.05.235.642.642 0 0 1-.319.316.573.573 0 0 1-.228.046c-.41 0-.749-.074-1.016-.222a2.08 2.08 0 0 1-.658-.557 1.85 1.85 0 0 1-.566.362c-.231.1-.486.18-.764.24a7.117 7.117 0 0 1-.873.134 9.628 9.628 0 0 1-.895.043h-.463a.578.578 0 0 1-.426-.17.578.578 0 0 1-.17-.427zm2.532 2.91l-.986.986-.998-.992.986-.992.998.998zm2.496.006l-.986.992-.999-.998.986-.986.999.992zM117.224 207c-.474 0-.918-.1-1.33-.298a3.958 3.958 0 0 1-1.129-.828l.688-.968a3.6 3.6 0 0 0 .737.542 2.8 2.8 0 0 0 .733.28c.241.053.479.068.712.045.234-.022.46-.076.679-.16a2.31 2.31 0 0 0 .81-.512l-1.924-4.626 1.108-.463.469 1.138c.154.382.346.852.578 1.41.231.558.503 1.208.815 1.95.082.195.154.373.217.533.062.16.143.296.24.408a.97.97 0 0 0 .39.262c.162.063.381.094.657.094.166 0 .308.057.426.17a.568.568 0 0 1 .177.426.591.591 0 0 1-.603.597c-.264 0-.498-.021-.703-.064a2.463 2.463 0 0 1-.542-.173 1.84 1.84 0 0 1-.41-.26 2.1 2.1 0 0 1-.305-.313c-.122.09-.26.183-.417.28a3.417 3.417 0 0 1-.539.268c-.227.09-.462.155-.706.198-.243.043-.52.064-.828.064zm-8.394 2.977c.86-.037 1.555-.207 2.082-.512a2.294 2.294 0 0 0 1.071-1.302c.106-.35.162-.7.168-1.053a5.528 5.528 0 0 0-.073-1.017 5.908 5.908 0 0 0-.225-.91 8.505 8.505 0 0 0-.283-.736 5.611 5.611 0 0 0-.244-.494 1.63 1.63 0 0 0-.11-.18l1.011-.644.152.255c.09.15.19.352.304.606a9.6 9.6 0 0 1 .341.889 6.65 6.65 0 0 1 .332 2.34c-.014.434-.092.87-.234 1.309a3.323 3.323 0 0 1-.524 1.032 3.39 3.39 0 0 1-.858.794c-.37.256-.791.45-1.266.584a7.152 7.152 0 0 1-1.832.25c-1.076 0-1.954-.305-2.636-.913-.32-.28-.58-.609-.776-.986a3.853 3.853 0 0 1-.393-1.242 4.18 4.18 0 0 1-.054-.746c.004-.25.02-.49.048-.721a5.99 5.99 0 0 1 .116-.654c.049-.205.097-.389.146-.551a6.736 6.736 0 0 1 .78-1.717l.967.712a2.45 2.45 0 0 0-.183.314 5.528 5.528 0 0 0-.21.475c-.07.18-.139.38-.204.6a6.37 6.37 0 0 0-.16.684c-.043.237-.07.478-.083.721-.012.244-.002.481.03.713a2.258 2.258 0 0 0 .307.81c.092.15.208.298.348.446.14.149.31.283.511.402.201.12.434.22.7.298a3.876 3.876 0 0 0 .934.144zm1.279-6.879l-.992.992-.999-.998.992-.992.999.998zm-8.832-1.655c.405.446.608 1.085.608 1.917v.87h-1.132v-.87c0-.556-.215-1.025-.645-1.406l-.594-.496a36.855 36.855 0 0 0-.6-.49c-.421-.455-.632-1.02-.632-1.698 0-.678.29-1.254.87-1.73a3.16 3.16 0 0 1 .883-.513c.308-.116.637-.174.986-.174.807 0 1.45.264 1.93.791.462.532.693 1.22.693 2.064h-1.132c0-1.145-.497-1.717-1.491-1.717a1.61 1.61 0 0 0-1.017.353c-.328.26-.493.566-.493.92 0 .54.207.973.621 1.302a55.144 55.144 0 0 0 1.145.877zm1.046 4.614l-.992.992-.943-.944.986-.998.95.95zm-6.64-1.863l-.232-5.308v-1.85h1.406v1.85l-.158 5.308h-1.016zm1.418 1.863l-.992.992-.944-.944.986-.998.95.95zm-4.943-1.863l-.231-5.308v-1.85h1.406v1.85l-.158 5.308h-1.017zm1.419 1.863l-.993.992-.943-.944.986-.998.95.95zm-4.943-1.863l-.231-5.308v-1.85h1.406v1.85l-.159 5.308h-1.016zm1.418 1.863l-.992.992-.943-.944.986-.998.95.95z"/><path fill="#555" d="M250.82 237.245l1.555-.245c2.16 3.613 3.682 5.962 4.565 7.047 1.51 1.852 11.746 8.775 30.707 20.768 12.382 11.846 19.665 20.554 21.85 26.125 3.278 8.356 10.762 46.093 7.84 52.515-2.924 6.422-18.614 12.999-25.913 15.14-7.299 2.14-40.855 5.488-53.54 1.654-12.685-3.835-27.035-10.603-27.862-19.929-.826-9.326 21.677-61.656 25.521-70.562 3.845-8.906 9.818-13.862 11.897-18.41 1.386-3.034 2.513-7.734 3.38-14.103zm1.208 2.678c-2.222 7.022-2.854 11.282-1.894 12.782 1.44 2.248 7.164-2.241 7.606-3.86.295-1.08-1.609-4.054-5.712-8.922z"/><path fill="#686868" d="M305.281 290.522c-3.359-5.588-9.452-12.429-18.281-20.522 5.813 29.64 8.542 47.583 8.188 53.828-.355 6.246-1.917 15.97-4.688 29.172 13.76-3.823 21.434-8.144 23.02-12.961 2.38-7.227-4.684-43.602-8.239-49.517z"/><path fill="#686868" fill-rule="nonzero" d="M217.734 131.774l-14.838 7.007c.554-.09 1.757-.422 3.187.556l13.345 9.397-2.92 4.202 13.014-6.157 1.18-14.219-2.92 4.202-6.884-4.865c-.797-.662-1.708-.97-3.164-.123zm-17.623 10.171c-2.038.794-4.01 2.558-4.619 5.704l.031.25-.83 10.594 14.432 1.26 1.146-14.292-5.016-3.52c-.953-.644-3.107-.792-5.144.004zm37.286 2.494l-8.314 11.863 11.757 8.275 5.54-2.584c2.038-1.007 4.745-7.049-.088-11.23l-.21-.258-8.685-6.066zm-48.242 25.779l5.098.463-.772 8.437c-.138.984.04 1.912 1.472 2.772l13.527 9.404c-.39-.475-1.237-1.434-1.103-3.127l1.414-16.189 5.098.463-11.832-8.24-12.902 6.017zm41.777-3.861l-1.222 14.324 11.653 8.235-2.1-4.7 7.653-3.57c.932-.334 1.635-.94 1.62-2.618l1.419-16.372c-.19.523-.575 1.722-2.12 2.5l-14.725 6.865-2.178-4.664zm-20.462 15.13l-.525 6.104c-.125 2.302 3.73 7.67 9.78 5.559l.325-.066 9.622-4.487-6.151-13.192-13.05 6.083zM158.363 383.408l-6.708.385c.224.052.732.113 1.126.72l3.633 5.774-1.751 1.177 5.885-.342 2.621-5.357-1.751 1.176-1.872-2.985c-.201-.384-.5-.648-1.183-.548zm-8.25 1.178c-.895-.013-1.914.363-2.626 1.493l-.026.102-1.935 4 5.29 2.773 2.62-5.39-1.368-2.166c-.263-.402-1.059-.8-1.954-.812zm13.784 6.869l-4.972 3.31 3.202 5.085 2.5-.131c.928-.07 2.88-1.998 1.683-4.392l-.04-.134-2.373-3.738zm-22.267 2.42l1.866.987-1.583 3.167c-.203.362-.277.752.135 1.314l3.702 5.805c-.076-.247-.251-.755.058-1.393l3.012-6.088 1.866.987-3.235-5.084-5.821.305zm16.46 5.102l-2.653 5.391 3.168 5.053-.08-2.164 3.454-.181c.405.016.765-.109 1.015-.765l3.042-6.158c-.152.173-.481.58-1.187.639l-6.644.348-.114-2.163zm-10.085 2.663l-1.133 2.296c-.399.878.245 3.58 2.866 3.714l.133.026 4.342-.228-.32-6.116-5.888.308z"/></g></svg>