<svg xmlns="http://www.w3.org/2000/svg" xmlns:xlink="http://www.w3.org/1999/xlink" width="303" height="426"><defs><path id="b" d="M207 87.25h4c.966 0 1.75.784 1.75 1.75v35.5a1.75 1.75 0 0 1-1.75 1.75h-4a1.75 1.75 0 0 1-1.75-1.75V89c0-.966.784-1.75 1.75-1.75zM2 55.5h4c.966 0 1.75.784 1.75 1.75v13.5A1.75 1.75 0 0 1 6 72.5H2a1.75 1.75 0 0 1-1.75-1.75v-13.5c0-.966.784-1.75 1.75-1.75zm0 31.75h4c.966 0 1.75.784 1.75 1.75v27A1.75 1.75 0 0 1 6 117.75H2A1.75 1.75 0 0 1 .25 116V89c0-.966.784-1.75 1.75-1.75zm0 39h4c.966 0 1.75.784 1.75 1.75v27A1.75 1.75 0 0 1 6 156.75H2A1.75 1.75 0 0 1 .25 155v-27c0-.966.784-1.75 1.75-1.75z"/><filter id="a" width="149.6%" height="204.2%" x="-24.8%" y="-38.3%" filterUnits="objectBoundingBox"><feMorphology in="SourceAlpha" operator="dilate" radius=".75" result="shadowSpreadOuter1"/><feOffset dy="14" in="shadowSpreadOuter1" result="shadowOffsetOuter1"/><feGaussianBlur in="shadowOffsetOuter1" result="shadowBlurOuter1" stdDeviation="15"/><feComposite in="shadowBlurOuter1" in2="SourceAlpha" operator="out" result="shadowBlurOuter1"/><feColorMatrix in="shadowBlurOuter1" values="0 0 0 0 0 0 0 0 0 0 0 0 0 0 0 0 0 0 0.132840806 0"/></filter><circle id="c" cx="2.25" cy="2.25" r="2.25"/><filter id="d" width="188.9%" height="188.9%" x="-44.4%" y="-44.4%" filterUnits="objectBoundingBox"><feGaussianBlur in="SourceAlpha" result="shadowBlurInner1" stdDeviation="1"/><feOffset dx="-1" dy="-1" in="shadowBlurInner1" result="shadowOffsetInner1"/><feComposite in="shadowOffsetInner1" in2="SourceAlpha" k2="-1" k3="1" operator="arithmetic" result="shadowInnerInner1"/><feColorMatrix in="shadowInnerInner1" values="0 0 0 0 0 0 0 0 0 0 0 0 0 0 0 0 0 0 0.344061368 0"/></filter><rect id="e" width="25" height="2.5" y="1" rx="1.25"/><filter id="f" width="112%" height="220%" x="-6%" y="-60%" filterUnits="objectBoundingBox"><feGaussianBlur in="SourceAlpha" result="shadowBlurInner1" stdDeviation=".5"/><feOffset dx="1" dy="1" in="shadowBlurInner1" result="shadowOffsetInner1"/><feComposite in="shadowOffsetInner1" in2="SourceAlpha" k2="-1" k3="1" operator="arithmetic" result="shadowInnerInner1"/><feColorMatrix in="shadowInnerInner1" values="0 0 0 0 0 0 0 0 0 0 0 0 0 0 0 0 0 0 0.344061368 0"/></filter><rect id="g" width="156" height="40" rx="20"/></defs><g fill="none" fill-rule="evenodd"><g transform="translate(90)"><use fill="#000" filter="url(#a)" xlink:href="#b"/><path fill="#555" stroke="#000" stroke-opacity=".04" stroke-width=".75" d="M207 86.875h4c1.174 0 2.125.951 2.125 2.125v35.5a2.125 2.125 0 0 1-2.125 2.125h-4a2.125 2.125 0 0 1-2.125-2.125V89c0-1.174.951-2.125 2.125-2.125zM2 55.125h4c1.174 0 2.125.951 2.125 2.125v13.5A2.125 2.125 0 0 1 6 72.875H2A2.125 2.125 0 0 1-.125 70.75v-13.5c0-1.174.951-2.125 2.125-2.125zm0 31.75h4c1.174 0 2.125.951 2.125 2.125v27A2.125 2.125 0 0 1 6 118.125H2A2.125 2.125 0 0 1-.125 116V89c0-1.174.951-2.125 2.125-2.125zm0 39h4c1.174 0 2.125.951 2.125 2.125v27A2.125 2.125 0 0 1 6 157.125H2A2.125 2.125 0 0 1-.125 155v-27c0-1.174.951-2.125 2.125-2.125z"/><path fill="#000" stroke="#000" stroke-opacity=".03" stroke-width="1.25" d="M54.625 7.875H34.5c-11.39 0-20.625 9.234-20.625 20.625V392c0 11.39 9.234 20.625 20.625 20.625h145c11.39 0 20.625-9.234 20.625-20.625V28.5c0-11.39-9.234-20.625-20.625-20.625h-20.125v8.875c0 5.73-4.645 10.375-10.375 10.375H65c-5.73 0-10.375-4.645-10.375-10.375V7.875zm-17.576-8.5H176.95c10.255 0 14.821.882 19.554 3.413 4.183 2.237 7.47 5.524 9.707 9.707 2.531 4.733 3.413 9.299 3.413 19.554V388.45c0 10.255-.882 14.821-3.413 19.554-2.237 4.183-5.524 7.47-9.707 9.707-4.733 2.531-9.299 3.413-19.554 3.413H37.05c-10.255 0-14.821-.882-19.554-3.413-4.183-2.237-7.47-5.524-9.707-9.707-2.531-4.733-3.413-9.299-3.413-19.554V32.05c0-10.255.882-14.821 3.413-19.554 2.237-4.183 5.524-7.47 9.707-9.707C22.228.257 26.794-.625 37.049-.625z"/><g opacity=".6"><g opacity=".75" transform="translate(130.25 12.25)"><use fill="#BFC0C5" xlink:href="#c"/><use fill="#000" filter="url(#d)" xlink:href="#c"/><circle cx="2.25" cy="2.25" r="2.5" stroke="#7D7D7D" stroke-opacity=".568" stroke-width=".5"/></g><g transform="translate(92.75 12.25)"><use fill="#BFC0C5" xlink:href="#e"/><use fill="#000" filter="url(#f)" xlink:href="#e"/><rect width="25.5" height="3" x="-.25" y=".75" stroke="#7D7D7D" stroke-opacity=".568" stroke-width=".5" rx="1.5"/></g></g><rect width="156" height="8" x="30" y="42" fill="#C6F592" rx="4"/><rect width="156" height="8" x="30" y="58" fill="#C6F592" rx="4"/><rect width="93" height="8" x="93" y="74" fill="#C6F592" rx="4"/><rect width="93" height="8" x="93" y="358" fill="#C6F592" rx="4"/><rect width="156" height="8" x="30" y="374" fill="#C6F592" rx="4"/><rect width="127" height="8" x="59" y="390" fill="#C6F592" rx="4"/><rect width="156" height="85" x="30" y="90" fill="#C6F592" rx="8"/><rect width="156" height="119" x="29" y="231" fill="#C6F592" rx="8"/><g transform="translate(29 183)"><mask id="h" fill="#fff"><use xlink:href="#g"/></mask><use fill="#000" xlink:href="#g"/><g fill="#7DDC16" mask="url(#h)"><path d="M0 0h156v40H0z"/></g><path fill="#FFF" d="M104.922 23.993c-.223 0-.486-.028-.79-.083a9.701 9.701 0 0 1-.908-.213 7.017 7.017 0 0 1-.827-.288c-.25-.107-.434-.214-.55-.32l.57-1.308c.172.111.378.219.62.323a6.037 6.037 0 0 0 1.617.442c.29.037.57.044.838.021.27-.023.52-.081.751-.174a1.45 1.45 0 0 0 .585-.424c.125-.144.141-.413.049-.807a3.631 3.631 0 0 0-.247-.713 5.935 5.935 0 0 0-.41-.745 7.755 7.755 0 0 0-1.142-1.384 6.148 6.148 0 0 0-.643-.54 3.582 3.582 0 0 0-.64-.375l.563-1.266c.274.125.55.288.828.487.278.2.548.424.81.675a9.3 9.3 0 0 1 1.402 1.708c.195.308.364.618.508.928.144.311.25.615.32.912.056.26.084.494.084.702 0 .209-.02.395-.06.557a1.78 1.78 0 0 1-.365.737c-.426.515-1.022.856-1.788 1.023a3.48 3.48 0 0 1-.556.097 6.54 6.54 0 0 1-.62.028zm-5.496-4.515c.13.432.253.858.369 1.28l.146.564c.05.195.098.39.142.584a10.773 10.773 0 0 1 .192 1.078c.004.051.01.11.014.174a3.936 3.936 0 0 1-.17 1.391 5.03 5.03 0 0 1-.495 1.096 6.48 6.48 0 0 1-.751 1.005c-.29.32-.605.62-.946.901a11.6 11.6 0 0 1-2.23 1.43l-.605-1.224c.487-.242.96-.521 1.42-.839a7.928 7.928 0 0 0 1.227-1.04c.36-.375.648-.774.866-1.196.218-.422.327-.858.327-1.308a1.51 1.51 0 0 0-.007-.115l-.014-.156v.007a5.133 5.133 0 0 0-.07-.47c-.032-.17-.069-.343-.11-.522a22.536 22.536 0 0 0-.272-1.054 36.3 36.3 0 0 0-.355-1.168l1.322-.418zm-14.908 3.84c0-.195.068-.357.202-.487s.3-.194.494-.194h1.377c.622 0 1.24-.06 1.854-.178a15.07 15.07 0 0 0 1.82-.47 18.958 18.958 0 0 0 1.752-.667c.57-.25 1.12-.508 1.65-.772a13.224 13.224 0 0 1-.916-.362c-.294-.13-.583-.262-.866-.397l-.636-.295c-.207-.095-.405-.18-.595-.254a4.645 4.645 0 0 0-.546-.178 1.954 1.954 0 0 0-.477-.066c-.19 0-.37.042-.542.125-.172.084-.33.19-.477.317a3.117 3.117 0 0 0-.393.41 4.897 4.897 0 0 0-.556.867l-1.253-.564.06-.122a5.484 5.484 0 0 1 .727-1.096c.357-.435.74-.762 1.15-.98.411-.218.84-.327 1.284-.327.223 0 .45.025.682.076.232.051.466.12.703.206a9.6 9.6 0 0 1 .72.295l.74.341c.274.13.551.257.832.383.28.125.562.237.845.337.283.1.566.18.849.24.283.06.568.09.855.09l.265 1.322c-.325.135-.648.28-.97.435-.323.155-.656.319-.999.49-.51.256-1.059.51-1.645.766a20.02 20.02 0 0 1-1.844.692c-.642.206-1.306.374-1.993.504-.686.13-1.38.195-2.08.195h-1.377a.698.698 0 0 1-.49-.198.72.72 0 0 1-.15-.22.644.644 0 0 1-.056-.264zm5.955-8.257l-1.134 1.134-1.14-1.141 1.133-1.134 1.141 1.14zM78.508 27.54a8.976 8.976 0 0 0 1.92-.598 6.881 6.881 0 0 0 1.454-.863c.403-.32.722-.66.956-1.02.234-.359.377-.712.428-1.06-.195.005-.425.006-.692.003a9.561 9.561 0 0 1-.783-.038c-1.006-.065-1.75-.394-2.233-.988a1.995 1.995 0 0 1-.407-.932 3.522 3.522 0 0 1-.007-1.082c.054-.368.152-.725.296-1.07a3.88 3.88 0 0 1 .508-.895c.232-.292.487-.513.765-.664.278-.15.566-.226.863-.226.658 0 1.263.297 1.815.89.195.218.371.464.529.738.158.273.292.567.403.88a6.622 6.622 0 0 1 .376 2.02h.522a.698.698 0 0 1 .49.199.72.72 0 0 1 .15.219.66.66 0 0 1 0 .532.734.734 0 0 1-.15.216.672.672 0 0 1-.49.198h-.626a5.255 5.255 0 0 1-.755 1.86 6.198 6.198 0 0 1-1.322 1.451 7.167 7.167 0 0 1-1.728 1.016c-.636.264-1.29.45-1.962.556l-.32-1.342zm3.068-8.063a.577.577 0 0 0-.383.157c-.12.104-.228.237-.323.4a2.735 2.735 0 0 0-.24.546c-.065.202-.11.401-.136.598-.026.197-.027.38-.004.55a.797.797 0 0 0 .418.626c.106.058.218.104.334.139.116.035.23.06.344.076.114.017.212.027.296.032a9.809 9.809 0 0 0 1.44-.007 5.343 5.343 0 0 0-.105-.838 4.973 4.973 0 0 0-.212-.741 3.7 3.7 0 0 0-.636-1.093 5.231 5.231 0 0 0-.157-.15 1.452 1.452 0 0 0-.188-.145 1.042 1.042 0 0 0-.215-.108.677.677 0 0 0-.233-.042zm-4.78-6.462c.205 1.887.323 3.575.355 5.064.051 2.458.014 4.452-.111 5.983l-1.37-.077c.148-2.064.194-3.796.139-5.196-.093-2.25-.218-4.105-.376-5.566l1.364-.208zm-14.733 10.31a.677.677 0 0 1 .184-.47.66.66 0 0 1 .205-.15.774.774 0 0 1 .25-.07c.274 0 .521-.053.741-.16a2 2 0 0 0 .585-.427c.17-.179.319-.384.449-.616.13-.232.24-.474.333-.727a7.07 7.07 0 0 0 .233-.765c.063-.258.118-.5.164-.727l1.377.292c-.037.111-.082.255-.135.431a12.77 12.77 0 0 0-.157.567 8.598 8.598 0 0 0-.132.62 3.409 3.409 0 0 0-.056.587c0 .126.012.247.035.366a.974.974 0 0 0 .118.316.622.622 0 0 0 .23.223.74.74 0 0 0 .369.083c.236 0 .448-.065.636-.195s.355-.299.501-.507a3.62 3.62 0 0 0 .38-.71 7.69 7.69 0 0 0 .274-.807c.076-.274.14-.54.191-.797.051-.257.09-.48.119-.67l1.335.243-.038.226c-.026.15-.056.334-.09.55-.035.215-.067.445-.094.688-.028.243-.042.46-.042.65 0 .172.013.336.038.49.026.156.067.293.125.411a.847.847 0 0 0 .23.292.65.65 0 0 0 .351.136c.214.028.39.026.532-.007a1.08 1.08 0 0 0 .338-.129.603.603 0 0 0 .184-.17c.04-.06.066-.104.08-.132H71.9a1 1 0 0 0 .136-.348c.025-.13.038-.269.038-.417 0-.265-.036-.55-.108-.856a9.778 9.778 0 0 0-.257-.9 12.272 12.272 0 0 0-.588-1.423l1.217-.64.133.267a13.993 13.993 0 0 1 .483 1.137 9.172 9.172 0 0 1 .431 1.58c.049.278.073.55.073.814a3.3 3.3 0 0 1-.167 1.082 2.173 2.173 0 0 1-.5.824 2.219 2.219 0 0 1-.839.525 3.33 3.33 0 0 1-1.179.177c-.18 0-.36-.027-.535-.083a2.48 2.48 0 0 1-.508-.226 2.648 2.648 0 0 1-.452-.334 2.196 2.196 0 0 1-.355-.414 3.317 3.317 0 0 1-.946.772 2.279 2.279 0 0 1-1.653.219 2.246 2.246 0 0 1-.525-.198 2.046 2.046 0 0 1-.455-.327 1.364 1.364 0 0 1-.317-.452 3.284 3.284 0 0 1-.946.696c-.352.171-.774.262-1.266.271h-.111a.688.688 0 0 1-.456-.209.652.652 0 0 1-.136-.212.696.696 0 0 1-.048-.26zm-2.213-.467a2.469 2.469 0 0 1-.43-.758c-1.225 1.28-3.157 1.92-5.796 1.92-1.41-.01-2.577-.178-3.502-.504-.925-.327-1.597-.843-2.014-1.548a3.135 3.135 0 0 1-.31-.703 3.62 3.62 0 0 1-.139-.72 3.99 3.99 0 0 1 .115-1.367 9.136 9.136 0 0 1 .334-1.047 4.165 4.165 0 0 1 .202-.435l1.203.661c0 .005-.02.051-.063.14a3.835 3.835 0 0 0-.139.347c-.05.144-.1.31-.15.501a3.1 3.1 0 0 0-.09.598 2.86 2.86 0 0 0 .039.64c.037.218.113.425.23.62.277.473.777.828 1.498 1.067.721.24 1.65.36 2.786.366 1.025 0 1.897-.09 2.616-.268.719-.179 1.317-.463 1.795-.852a3.2 3.2 0 0 0 .553-.55c.155-.2.287-.406.396-.62.11-.213.2-.428.275-.646.074-.218.142-.431.202-.64l1.322.362c-.024.092-.05.196-.077.31a10.6 10.6 0 0 0-.083.371 3.194 3.194 0 0 0-.077.696c.01.2.04.408.09.626.052.218.149.413.293.584.329.413.88.62 1.655.62.195 0 .359.066.49.198a.666.666 0 0 1 .199.49.672.672 0 0 1-.689.682h-.055c-1.206-.014-2.099-.394-2.679-1.14zm-5.968-5.704l-1.127 1.127-1.141-1.134 1.127-1.134 1.14 1.14zm2.852.007l-1.127 1.134-1.14-1.141 1.126-1.127 1.14 1.134z" mask="url(#h)"/></g></g><path fill="#000" d="M78.733 423.275c2.363-34.89 1.175-59.176-3.563-72.86-4.738-13.685-8.365-25.32-10.882-34.904-2.72 10.295-6.82 25.164-12.304 44.609-5.483 19.444-9.409 40.553-11.778 63.326h-4.725c-4.825-31.384-7.985-53.575-9.482-66.572-1.496-12.997-.144-32.054 4.057-57.17h73.96c1.043 17.992.511 34.896-1.596 50.71-2.107 15.815-7.513 40.102-16.219 72.861h-7.468z"/><path fill="#000" d="M25.716 422.595h14.71V426H22.552zm67.076 0H78.083V426h17.872z"/><path fill="#F7BDAC" d="M70.866 213.348h20.377l1.41-11.27 1.2-1.631c5.488 1.2 10.171 1.348 14.051.447 5.82-1.352 14.24-5.507 15.586-16.215.897-7.14.013-18.267-2.652-33.382-12.464-2.116-19.608-3.108-21.433-2.975-2.737.199-8.326 3.76-9.43 6-.737 1.494-1.336 5.575-1.798 12.246l-8.566-7.973-8.745 54.753z"/><path fill="#000" d="M95.783 170.9l-5.794-4.884-10.063 19.177-6.938 12.2c-2.245-24.548-3.116-40.244-2.612-47.09.442-6.015 1.156-11.534 2.61-14.345 3.606-6.978 12.904-11.434 27.895-13.368 1.297-.229 2.197.042 2.7.81 1.022 1.568 1.008 2.981 1.008 2.981s2.247-2.643 7.564-5.778c3.691-2.177 7.167-3.21 10.427-3.1 5.305.833 8.413 2.89 9.325 6.17.912 3.28-.035 7.376-2.842 12.288 6.922 1.44 10.662 3.743 11.22 6.912.56 3.168-3.808 6.274-13.101 9.318-11.792-2.038-19.76-2.073-23.906-.105-4.146 1.969-6.643 8.24-7.493 18.814z"/><path fill="#7DDC16" d="M90.33 198.453c5.536-.54 11.044 1.058 16.522 4.796 4.553 3.107 8.08 10.23 9.905 19.301.09.446.534 3.61 1.333 9.49l8.08-1.235-2.584 8.612-5.496 1.006c-9.382 14.736-14.073 27.23-14.073 37.482v21.806h-73.94c1.15-11.38 2.866-25.054 5.146-41.02 3.42-23.948-2.604-30.106 7.46-48.913 8.692-16.246 31.353-12.806 31.56-12.806.368 0 5.255 4.27 14.66 12.81l1.427-11.33z"/><path fill="#F7BDAC" d="M126.17 230.804c2.183-1.862 3.396-3.53 3.636-5 .377-2.304 3.609-10.34 5.498-10.109 1.89.23 1.229 3.241 1.89 4.533a11.92 11.92 0 0 0 1.683 2.452c2.006-1.074 3.421-1.847 4.246-2.321 1.238-.711 5.593-5.024 7.512-4.433 1.92.59-1.662 6.724-6.368 12.084-3.138 3.574-7.345 6.451-12.621 8.633l-8.057 2.774 2.58-8.613z"/><path fill="#6DC909" d="M117.154 240.537c-23.567 3.285-38.645 4.696-45.235 4.234-6.59-.463-17.355-5.466-32.296-15.01 13.733 11.316 24.498 17.247 32.296 17.794 7.797.547 22.876-1.792 45.235-7.018z"/></g></svg>