<svg xmlns="http://www.w3.org/2000/svg" xmlns:xlink="http://www.w3.org/1999/xlink" width="66" height="160"><defs><circle id="a" cx="18.5" cy="18.5" r="18.5"/><circle id="c" cx="18.5" cy="18.5" r="18.5"/><circle id="e" cx="18.5" cy="18.5" r="18.5"/></defs><g fill="none" fill-rule="evenodd"><mask id="b" fill="#fff"><use xlink:href="#a"/></mask><use fill="#FFF" xlink:href="#a"/><path fill="#000" d="M19.291 28.362c0-1.809-.032-3.606-.097-5.392a52.46 52.46 0 0 0-.431-5.14 32.151 32.151 0 0 0-.953-4.606c-.413-1.428-.967-2.69-1.663-3.784l2.31-1.475c.76 1.206 1.393 2.611 1.899 4.216.505 1.605.892 3.418 1.161 5.44.112.872.202 1.771.272 2.699a93.736 93.736 0 0 1 .25 5.496c.014.89.021 1.739.021 2.546h-2.769z" mask="url(#b)"/><path fill="#FFF" d="M17 36h4v18h-4zm0 53h4v18h-4zm-1 53h4v12.08a2 2 0 0 0 2 2h36.617a2 2 0 0 0 2-1.99l.371-80.087a1 1 0 0 0-1-1.005h-14.99V82l-7.003-11 7.003-11.007v9.005h16.006a4 4 0 0 1 4 4v82.988a4 4 0 0 1-4 4H20a4 4 0 0 1-4-4V142z"/><g transform="translate(0 53)"><mask id="d" fill="#fff"><use xlink:href="#c"/></mask><use fill="#FFF" xlink:href="#c"/><path fill="#000" d="M25.385 7.66c0 .018.014.11.042.277.028.167.056.38.083.64.028.26.051.56.07.898.019.338.023.693.014 1.064-.046 2.152-.552 3.794-1.517 4.925v-.014a4.47 4.47 0 0 1-1.676 1.28c-.654.288-1.38.432-2.178.432-.435 0-.834-.03-1.196-.09a5.272 5.272 0 0 1-1.071-.3 74.639 74.639 0 0 0 .111.765c.111.872.202 1.77.271 2.693a92.335 92.335 0 0 1 .25 5.495c.015.895.022 1.746.022 2.553h-2.77c0-1.475-.013-2.942-.04-4.403a62.472 62.472 0 0 0-.223-4.258 40.681 40.681 0 0 0-.536-3.95 19.026 19.026 0 0 0-.981-3.472 20.991 20.991 0 0 0-1.377-2.838l2.323-1.475c.148.24.288.484.417.73.13.246.256.501.376.765.12.265.246.545.376.842.13.297.273.617.431.96.213.492.424.935.633 1.329.209.394.45.735.724 1.022.273.288.589.508.946.661.357.153.795.23 1.314.23.39 0 .726-.058 1.01-.174a1.88 1.88 0 0 0 .73-.536 2.54 2.54 0 0 0 .43-.716c.112-.274.203-.564.272-.87.07-.306.118-.621.146-.946.028-.325.042-.64.042-.946 0-.399-.02-.784-.063-1.155a12.296 12.296 0 0 0-.132-.918l2.727-.5z" mask="url(#d)"/></g><g transform="translate(0 106)"><mask id="f" fill="#fff"><use xlink:href="#e"/></mask><use fill="#FFF" xlink:href="#e"/><path fill="#000" d="M27.514 7.506c.148.798.262 1.535.34 2.212.08.677.119 1.299.119 1.865 0 1.771-.376 3.116-1.127 4.034a3.579 3.579 0 0 1-1.259.96 3.853 3.853 0 0 1-1.62.334c-.233 0-.479-.025-.738-.076a3.463 3.463 0 0 1-1.586-.786 4.39 4.39 0 0 1-.738-.835l-.278.417c-.445.501-.928.881-1.447 1.141-.52.26-1.136.39-1.85.39-.353 0-.659-.021-.919-.063a4.689 4.689 0 0 1-.82-.216l.048.334c.014.102.03.21.049.32.12.89.215 1.795.285 2.713.07.919.123 1.832.16 2.741.037.91.063 1.809.077 2.7.013.89.02 1.748.02 2.573h-2.768c.018-.38.03-.776.035-1.19.004-.412.006-.804.006-1.175 0-1.336-.046-2.648-.139-3.937a47.997 47.997 0 0 0-.41-3.729 35.45 35.45 0 0 0-.689-3.436 26.593 26.593 0 0 0-.974-3.075 2.942 2.942 0 0 1-.083-.195.544.544 0 0 1-.042-.111 19.32 19.32 0 0 0-.48-1.05 10.652 10.652 0 0 0-.577-1.023l2.518-1.49c.065.112.141.247.23.404.088.158.178.33.27.515.094.186.186.378.28.578a71.737 71.737 0 0 1 .932 1.983c.25.574.47 1.057.66 1.446.19.39.387.705.591.946.204.241.441.415.71.522.269.107.612.16 1.03.16.306 0 .54-.046.702-.14.162-.092.322-.236.48-.43.26-.297.466-.724.62-1.28.152-.557.238-1.21.257-1.962a26.546 26.546 0 0 0-.056-1.336 99.53 99.53 0 0 1-.049-.772 6.022 6.022 0 0 0-.034-.438l2.754-.334v.125c0 .056.005.102.014.14.019.101.04.266.063.493.023.227.044.494.062.8.056.566.133 1.164.23 1.795.097.63.22 1.187.369 1.67.12.324.24.581.361.772.121.19.237.331.348.424a.82.82 0 0 0 .3.174c.088.023.16.035.215.035.241 0 .415-.03.522-.09a.702.702 0 0 0 .23-.189 1.7 1.7 0 0 0 .16-.243c.06-.107.115-.25.166-.431a5.14 5.14 0 0 0 .133-.668c.037-.265.055-.582.055-.953 0-.408-.032-.902-.097-1.482a29.466 29.466 0 0 0-.32-2.066l2.699-.515z" mask="url(#f)"/></g></g></svg>