<svg xmlns="http://www.w3.org/2000/svg" style="background:#fff" width="1280" height="758"><g fill="none" fill-rule="evenodd"><path fill="#F5FFEA" d="M0 0h1280v608H152.49a16 16 0 0 1-15.594-12.416L0 0z"/><path fill="#E4FFC7" d="M0 0h1280v608L202.36 657.422a16 16 0 0 1-16.107-11.55L0 0z"/><path fill="#C6F592" d="M0 0h1280v608L252.37 706.787a16 16 0 0 1-16.686-10.795L0 0z"/><path fill="#B3F26E" d="M0 0h1280v608L302.49 756.07a16 16 0 0 1-17.341-10.107L0 0z"/><path fill="#A1F04B" d="M12.712 0H1280v608l-929.02 98.806a16 16 0 0 1-16.116-8.989L5.5 11.461A8 8 0 0 1 12.712 0z"/><path fill="#90EB2D" d="M0 0h1280v608l-880.542 49.455a16 16 0 0 1-14.663-7.821L0 0z"/><path fill="#7DDC16" d="M0 0h1280v608H447.924a16 16 0 0 1-12.964-6.623L0 0z"/></g></svg>