<svg xmlns="http://www.w3.org/2000/svg" width="235" height="321"><g fill="none" fill-rule="evenodd"><path fill="#000" d="M145.83 316.646c0-28 2.37-48.842 7.107-62.526 4.738-13.684 10.288-28.554 16.649-44.61 2.719 10.296 6.82 25.165 12.303 44.61 5.483 19.444 9.41 40.553 11.779 63.326h4.724c4.825-31.384 7.986-53.575 9.482-66.572 1.496-12.997.68-32.054-2.448-57.17h-75.568c-2.799 22.265-4.198 41.322-4.198 57.17 0 15.848 3.808 37.772 11.425 65.772h8.745z"/><path fill="#000" d="M208.157 316.595h-14.709V320h17.872zm-77.075 0h14.709V320h-17.872z"/><path fill="#F7BDAC" d="M163.962 96.83l-18.893 7.634-5.529-9.921-1.725-1.064c-4.638 3.168-8.924 5.06-12.86 5.678-5.902.927-15.265.228-20.525-9.196-3.506-6.283-6.855-16.931-10.046-31.944 10.764-6.631 17.016-10.227 18.758-10.787 2.612-.841 9.128.367 10.992 2.03 1.242 1.109 3.327 4.67 6.253 10.68l4.956-10.6 28.619 47.49z"/><path fill="#000" d="M124.958 66.807l3.543-6.7 16.514 14.011 11.002 8.713c-7.114-23.6-12.186-38.48-15.218-44.639-2.663-5.411-5.392-10.26-7.792-12.323-5.959-5.119-16.25-5.767-30.873-1.945-1.288.274-2.021.862-2.199 1.763-.361 1.836.181 3.141.181 3.141s-3.073-1.609-9.178-2.524c-4.238-.635-7.847-.29-10.829 1.033-4.606 2.759-6.718 5.83-6.335 9.213.383 3.383 2.796 6.826 7.24 10.329-5.88 3.927-8.484 7.465-7.816 10.612.67 3.146 5.882 4.39 15.64 3.731 10.168-6.307 17.544-9.324 22.125-9.052 4.581.272 9.246 5.151 13.995 14.637z"/><path fill="#6DC909" d="M121.846 103.185c-6.735 10.661-10.29 22.973-10.664 36.933-.374 13.96 5.568 34.223 17.825 60.787l.851-7.192-8.012-90.528z"/><path fill="#7DDC16" d="M143.544 92.453c-5.537-.54-11.044 1.058-16.522 4.796-4.553 3.107-8.08 10.23-9.906 19.301-.134.67-.26 1.35-.376 2.04a69.679 69.679 0 0 0-.51 3.616 74.42 74.42 0 0 0-.264 2.767 81.52 81.52 0 0 0 .398 16.184c1.623 13.076 2.72 21.06 3.294 23.949l-8.202 5.371 8.202 3.704c1.72-1 2.605-1.426 2.652-1.281.87 2.654 3.386 9.591 7.546 20.811h75.553c-5.31-20.647-8.661-35.789-10.052-45.427-3.694-25.599-.086-29.857-4.166-44.506-4.08-14.65-31.353-12.806-31.56-12.806-.368 0-5.255 4.27-14.661 12.81l-1.426-11.33z"/><path fill="#F7BDAC" d="M111.465 170.472c-2.838.426-4.891.247-6.16-.537-1.986-1.227-9.65-2.818-11.235-2.482-1.585.335 1.64 3.054 2.18 4.4.361.896.361 1.748 0 2.553-1.628 1.027-2.892 1.696-3.79 2.008-1.35.467-9.986.757-8.275 2.76 1.712 2.005 6.166 3.158 13.299 3.123 4.755-.024 9.687-1.31 14.795-3.862l7.38-4.26-8.194-3.703z"/><path fill="#6DC909" d="M137.08 164.914c11.545-5.774 21.683-12.374 30.415-19.803 8.732-7.428 16.289-15.813 22.672-25.153-5.062 10.156-10.915 18.54-17.557 25.153-6.643 6.613-18.487 13.214-35.53 19.803z"/><g transform="translate(84.597 146.977)"><rect width="12.075" height="29.918" y="1.71" fill="#555" rx="4"/><rect width="4.025" height="28.209" x="7.245" y="2.564" fill="#000" rx="2.013"/><rect width="5.635" height="2.564" x="3.22" fill="#555" rx="1.282"/></g><g transform="matrix(-1 0 0 1 110.605 92.093)"><path fill="#7DDC16" d="M83.445 9.517l1.969-.383a8 8 0 0 1 9.38 6.327l12.902 66.38a8 8 0 0 1-6.326 9.379l-1.969.382L83.445 9.517z"/><rect width="8.413" height="109.717" x="83.943" y="-.179" fill="#000" rx="4.206" transform="rotate(-11 88.15 54.68)"/><path fill="#000" fill-rule="nonzero" d="M87.594 124.387l-1.566.712-1.451-3.075 1.566-.712c4.095-1.862 6.792-3.954 8.134-6.22 1.367-2.307 2.085-5.942 2.085-10.882v-1.694h3.452v1.694c0 5.485-.828 9.673-2.553 12.585-1.748 2.952-4.985 5.463-9.667 7.592z"/><ellipse cx="97.954" cy="104.634" fill="#555" rx="3.021" ry="2.965"/><path fill="#7DDC16" d="M0 105.905h87.166v104.308c0 8.836-7.163 16-16 16H16c-8.837 0-16-7.164-16-16V105.905z"/><ellipse cx="84.145" cy="213.928" fill="#000" rx="14.24" ry="13.979"/><ellipse cx="84.145" cy="213.928" fill="#555" rx="9.062" ry="8.896"/></g></g></svg>