<svg xmlns="http://www.w3.org/2000/svg" width="667" height="364"><g fill="none" fill-rule="evenodd"><path fill="#7DDC16" d="M480.514 6.821l116.755 257.317a4 4 0 0 0 3.643 2.347h61.291a4 4 0 0 0 4-4v-8.17a4 4 0 0 0-4-4h-23.82a4 4 0 0 1-4-4v-86.079a8 8 0 0 0-.801-3.49l-57.9-119.41a8 8 0 0 0-4.408-4.008L485.552 1.42a4 4 0 0 0-5.038 5.401z"/><path fill="#6DC909" d="M599.273 257.94a3.879 3.879 0 0 0 3.879 3.878h54.887a3.879 3.879 0 0 0 0-7.758h-54.887a3.879 3.879 0 0 0-3.88 3.88z"/><path fill="#7DDC16" d="M213.636 0H466.25a10 10 0 0 1 9.11 5.874l78.46 173.206c2.28 5.03.049 10.956-4.982 13.235a10 10 0 0 1-4.126.891H213.636c-5.522 0-10-4.477-10-10V10c0-5.523 4.478-10 10-10zm-10.66 208.228v48.324c0 5.523 4.477 10 10 10h365.098c5.523 0 10-4.477 10-10a10 10 0 0 0-.91-4.167l-22.153-48.325a10 10 0 0 0-9.09-5.832H212.975c-5.523 0-10 4.477-10 10z"/><path fill="#555" d="M217.784 223.247v40.503c0 5.523 4.478 10 10 10h118.281c5.523 0 10-4.477 10-10v-40.503c0-5.523-4.477-10-10-10h-118.28c-5.523 0-10 4.477-10 10z"/><path fill="#000" d="M315.152 213.247v60.503h5.818v-60.503zm-62.062 0v60.503h5.82v-60.503z"/><path fill="#7DDC16" d="M181.864 26.786H64.473a20 20 0 0 0-17.575 10.453c-20.09 36.986-33.115 70.383-39.074 100.192C1.952 166.8-.441 204.741.645 251.253c.203 8.689 7.305 15.627 15.996 15.627h165.223c8.837 0 16-7.164 16-16V42.786c0-8.837-7.163-16-16-16z"/><path fill="#6DC909" d="M165.818 44v47.758c0 6.627 5.373 12 12 12h2.766c6.628 0 12-5.373 12-12V44c0-6.627-5.372-12-12-12h-2.766c-6.627 0-12 5.373-12 12zm-64.97 124.727a3.879 3.879 0 0 0 3.88 3.88h19.008a3.879 3.879 0 1 0 0-7.758h-19.009a3.879 3.879 0 0 0-3.879 3.878zM124.512 30.06H64.746a16 16 0 0 0-14.023 8.297c-20.119 36.622-33.209 70.092-39.27 100.41-1.168 5.84-2.555 15.09-4.163 27.751a3 3 0 0 0 3.505 3.331c43.969-7.87 73.961-26.832 89.977-56.886 15.765-29.581 24.675-56.129 26.729-79.641a3 3 0 0 0-2.989-3.261z"/><path fill="#7FDF15" d="M15.177 136.62c-2.276 11.382-3.68 19.744-4.211 25.088a3 3 0 0 0 3.628 3.227c14.802-3.25 29.23-8.5 43.284-15.747 15.278-7.879 27.978-20.088 38.1-36.629H22.322c-1.798 1.206-4.18 9.227-7.145 24.061z"/><circle cx="110.061" cy="266.182" r="53.818" fill="#000"/><circle cx="110.061" cy="266.182" r="22.788" fill="#555"/><circle cx="495.03" cy="266.182" r="53.818" fill="#000"/><circle cx="495.03" cy="266.182" r="22.788" fill="#555"/><path fill="#555" d="M10.158 196.556c10.43 3.597 15.645 10.182 15.645 19.755 0 9.588-5.417 16.195-16.251 19.82a4 4 0 0 1-5.269-3.771c-.037-6.49-.025-11.537.038-15.14.065-3.733.243-9.411.536-17.036a4 4 0 0 1 5.301-3.628z"/><path fill="#000" d="M9.98 209.179c6.5 2.085 9.75 6.033 9.75 11.844 0 5.817-3.373 9.777-10.12 11.88a2 2 0 0 1-2.595-1.897c-.025-4.076-.019-7.225.02-9.447.04-2.284.151-5.802.335-10.553a2 2 0 0 1 2.61-1.827z"/><circle cx="234.182" cy="229.333" r="8.242" fill="#000"/><path fill="#F7BDAC" d="M420.267 361.275c-2.363-34.89-1.175-59.176 3.563-72.86 4.738-13.685 8.365-25.32 10.882-34.904 2.72 10.295 6.82 25.164 12.304 44.609 5.483 19.444 9.409 40.553 11.778 63.326h4.725c4.825-31.384 7.985-53.575 9.482-66.572 1.496-12.997.68-32.054-2.448-57.17h-75.569l-.041.727c-.008.139.092.35.3.632l-.259 6.622-.387.812c-.43 14.893.233 28.78 1.983 41.917 2.107 15.815 7.513 40.102 16.219 72.861h7.468z"/><path fill="#FFF600" d="M419.902 309.315c1.384-10.369 2.694-17.335 3.928-20.9 4.738-13.685 8.365-25.32 10.882-34.904 2.72 10.295 6.82 25.164 12.304 44.609.876 3.109 1.713 6.26 2.51 9.455 1.99 7.973 8.66 7.874 10.716 7.874 2.057 0 10.15-.337 11.068-7.18.7-5.216 1.263-9.68 1.69-13.395 1.497-12.997.681-32.054-2.447-57.17h-75.569l-.041.727c-.008.139.092.35.3.632l-.259 6.622-.387.812c-.43 14.893.233 28.78 1.983 41.917.853 6.401 2.246 14.19 4.18 23.366.962 4.566 5.945 5.53 9.217 5.04 2.117-.319 5.425-2.82 9.925-7.505z"/><path fill="#000" d="M473.284 360.595h-14.71V364h17.873zm-67.076 0h14.709V364h-17.872z"/><path fill="#F7BDAC" d="M430.472 147.783h-20.377l-1.41-11.27-1.2-1.632c-5.487 1.2-10.17 1.349-14.05.448-5.821-1.352-14.24-5.507-15.586-16.216-.898-7.139-.014-18.266 2.651-33.382 12.464-2.115 19.609-3.107 21.433-2.974 2.737.198 8.326 3.76 9.431 6 .737 1.493 1.336 5.575 1.797 12.245l8.567-7.972 8.744 54.753z"/><path fill="#000" d="M405.555 105.335l5.795-4.885 10.063 19.177 6.938 12.2c2.244-24.547 3.115-40.243 2.611-47.09-.442-6.014-1.156-11.533-2.609-14.344-3.606-6.978-12.905-11.434-27.896-13.368-1.297-.229-2.197.041-2.699.81-1.022 1.567-1.009 2.981-1.009 2.981s-2.247-2.643-7.564-5.779c-3.691-2.176-7.167-3.21-10.427-3.099-5.305.833-8.413 2.89-9.325 6.17-.912 3.28.035 7.376 2.843 12.288-6.922 1.44-10.663 3.743-11.221 6.911-.559 3.169 3.808 6.275 13.102 9.319 11.791-2.039 19.76-2.073 23.905-.105 4.146 1.969 6.644 8.24 7.493 18.814z"/><path fill="#F7BDAC" d="M408.67 136.453c-5.536-.54-11.044 1.058-16.522 4.796-2.746 1.874-9.59 8.35-12.24 22.426-1.148 6.097-1.647 50.444 4.029 65.708 2.065 5.555 4.317 8.4 6.261 10.868 1.078 1.368 2.673 3.18 4.785 5.437l.25-6.598c-2.185-6.976-3.61-13.01-4.272-18.099-.993-7.634-2.474-29.541-2.344-28.823.989 5.49 3.11 20.672 6.366 45.543l76.164.34c-5.776-10.859-9.805-24.27-12.085-40.237-1.126-7.89-.716-13.97-.02-19.25.057-.43-.107 10.056 4.23 31.44 1.041 5.13 3.666 14.235 7.875 27.314v.733l-.253.793.756 8.47c2.61-1.69 4.143-4.778 4.599-9.263.375-3.703.307-20.04-2.535-36.172-2.183-12.384-9.035-40.165-17.396-54.101-8.362-13.937-31.354-12.806-31.56-12.806-.369 0-5.256 4.27-14.662 12.81l-1.426-11.33z"/><path fill="#FFF" d="M436.135 135.878c-4.734 12.851-10.482 19.621-17.243 20.309-6.762.688-13.456-5.461-20.082-18.448-.85.35-1.488.62-1.912.813-.424.192-1.059.499-1.903.918 1.093 13.004 1.387 22.562.882 28.675-.506 6.113-2.607 16.258-6.305 30.434 1.16 8.506 2.01 14.708 2.549 18.607.539 3.898 1.497 10.769 2.874 20.612l76.14.325c-4.981-10.642-8.205-19.73-9.671-27.263-1.466-7.533-2.475-14-3.026-19.4-4.803-11.377-8.217-20.11-10.242-26.198-2.025-6.088-4.768-15.597-8.231-28.527a40.205 40.205 0 0 0-1.75-.453 63.589 63.589 0 0 0-2.08-.404z"/></g></svg>