<svg width="170" height="50" xmlns="http://www.w3.org/2000/svg"><g fill="none" fill-rule="evenodd"><path d="M137.668 0H11.918c-.458 0-.91 0-1.368.003-.383.002-.762.01-1.149.015-.84.01-1.676.084-2.505.221a8.331 8.331 0 0 0-2.376.784 8.047 8.047 0 0 0-3.496 3.5 8.251 8.251 0 0 0-.781 2.379c-.14.827-.214 1.664-.224 2.502-.012.384-.013.768-.019 1.151v28.893c.006.388.007.764.019 1.153.01.838.085 1.675.224 2.502.137.829.4 1.631.781 2.38a7.76 7.76 0 0 0 1.473 2.018 7.843 7.843 0 0 0 2.023 1.474c.748.38 1.55.646 2.376.788.829.136 1.666.21 2.505.221.387.009.766.014 1.149.014.457.002.91.002 1.368.002h125.75c.45 0 .906 0 1.355-.002.381 0 .772-.005 1.153-.014.838-.01 1.673-.084 2.5-.22a8.505 8.505 0 0 0 2.385-.79 7.847 7.847 0 0 0 2.022-1.473 7.994 7.994 0 0 0 1.477-2.018c.377-.75.638-1.552.773-2.38.14-.827.217-1.664.232-2.502.005-.389.005-.765.005-1.153.01-.454.01-.906.01-1.367v-26.16c0-.459 0-.913-.01-1.366 0-.383 0-.767-.005-1.15a16.884 16.884 0 0 0-.232-2.503 8.272 8.272 0 0 0-.773-2.38 8.083 8.083 0 0 0-3.499-3.5 8.46 8.46 0 0 0-2.385-.783 16.305 16.305 0 0 0-2.5-.22c-.381-.007-.772-.014-1.153-.017C138.574 0 138.118 0 137.668 0z"/><path d="M10.916 49.998c-.44 0-.868-.006-1.304-.014a20.128 20.128 0 0 1-2.694-.214 9.103 9.103 0 0 1-2.389-.716 7.81 7.81 0 0 1-2.014-1.329 7.034 7.034 0 0 1-2.254-3.991c-.148-.81-.228-1.63-.24-2.451C.012 41.007 0 40.089 0 40.089V9.894s.013-.904.021-1.17c.011-.82.09-1.637.239-2.446a7.097 7.097 0 0 1 2.247-4A8.039 8.039 0 0 1 4.529.94 9.011 9.011 0 0 1 6.912.23 19.967 19.967 0 0 1 9.616.015l1.3-.016h148.16l1.317.017c.897.01 1.793.08 2.679.212.837.13 1.65.37 2.409.716 1.496.7 2.713 1.805 3.481 3.163.376.68.636 1.406.772 2.156.15.815.233 1.64.25 2.467.005.37.005.767.005 1.163.011.49.011.957.011 1.427v27.357c0 .474 0 .938-.011 1.405 0 .425 0 .814-.006 1.215-.017.812-.1 1.622-.246 2.423a7.018 7.018 0 0 1-.779 2.183 7.248 7.248 0 0 1-1.464 1.811 7.822 7.822 0 0 1-2.018 1.337 9.07 9.07 0 0 1-2.404.718 19.9 19.9 0 0 1-2.695.214c-.422.008-.864.014-1.294.014L157.52 50l-146.604-.002z" fill="#000" fill-rule="nonzero"/><path d="M115.963 14.995a3.35 3.35 0 0 1-.592-.063 7.276 7.276 0 0 1-.68-.159 5.263 5.263 0 0 1-.621-.216 1.476 1.476 0 0 1-.413-.24l.428-.981c.129.083.284.164.465.242a4.528 4.528 0 0 0 1.213.332c.217.027.427.033.628.015.202-.017.39-.06.564-.13.174-.07.32-.176.438-.318.094-.108.106-.31.037-.606-.039-.17-.1-.348-.186-.534a4.452 4.452 0 0 0-.307-.559 5.816 5.816 0 0 0-.856-1.038 4.61 4.61 0 0 0-.483-.404 2.686 2.686 0 0 0-.48-.282l.423-.95c.205.094.412.216.62.366.21.15.412.318.609.506a6.975 6.975 0 0 1 1.05 1.28c.147.232.274.464.382.697.108.233.188.46.24.684.041.194.062.37.062.526 0 .157-.014.296-.044.418a1.335 1.335 0 0 1-.274.553c-.32.386-.767.642-1.34.767a2.61 2.61 0 0 1-.418.073 4.89 4.89 0 0 1-.465.02zm-4.121-3.386c.097.323.19.643.276.96l.11.422c.038.146.074.292.107.439a8.662 8.662 0 0 1 .143.808l.01.13a2.952 2.952 0 0 1-.128 1.043c-.088.286-.211.56-.37.823a4.86 4.86 0 0 1-.563.754 6.59 6.59 0 0 1-.71.675 8.7 8.7 0 0 1-1.672 1.072l-.454-.918c.366-.18.72-.39 1.065-.628a5.97 5.97 0 0 0 .92-.78 3.84 3.84 0 0 0 .65-.898c.164-.316.245-.643.245-.98a30.064 30.064 0 0 0-.016-.203v.004a3.85 3.85 0 0 0-.052-.352 9.968 9.968 0 0 0-.083-.391 16.907 16.907 0 0 0-.203-.79 28.016 28.016 0 0 0-.267-.877l.992-.313zm-5.369 5.191l-.845.845-.856-.85.845-.85.856.855zm2.14.005l-.846.85-.856-.855.846-.845.855.85zm-4.143-2.828h.579c.121.004.254.005.396.003a5.24 5.24 0 0 0 .864-.083c.14-.027.27-.063.388-.11.119-.047.223-.105.313-.175a.669.669 0 0 0 .204-.25c.07-.15.09-.363.06-.64a5.46 5.46 0 0 0-.211-.967 10.258 10.258 0 0 0-.282-.725 13.292 13.292 0 0 0-.172-.392l.928-.459a6.038 6.038 0 0 1 .172.38c.05.116.103.249.162.4.06.151.115.312.167.483.324.998.364 1.777.12 2.337-.247.56-.685.929-1.315 1.106a2.08 2.08 0 0 1-.36.065 7.34 7.34 0 0 1-.448.034 13.34 13.34 0 0 1-.762.016h-.803v-1.023zm-.009 1.014a4.05 4.05 0 0 1-.698-.127 1.73 1.73 0 0 1-.692-.417 1.284 1.284 0 0 1-.263-.37 2.015 2.015 0 0 1-.185-.76 10.264 10.264 0 0 1-.006-.3v-.099l.006-.19a89.26 89.26 0 0 0 .005-2.1 43.483 43.483 0 0 0-.042-1.873 17.214 17.214 0 0 0-.057-.838 6.969 6.969 0 0 0-.084-.628l1.023-.188c.031.177.059.395.083.652.025.257.045.537.06.84.016.303.027.618.034.947.007.329.01.65.01.963.004.306.006.6.006.881v.752a46.061 46.061 0 0 1-.005.798v.094c-.004.153.001.288.015.404a.465.465 0 0 0 .141.29c.085.088.302.168.653.24l-.004 1.029zm-5.689-4.828a.314.314 0 0 0-.172.07.833.833 0 0 0-.196.212 1.859 1.859 0 0 0-.18.345 2.093 2.093 0 0 0-.125.47c-.049.26-.019.455.089.583a.73.73 0 0 0 .305.204c.134.052.295.083.483.094.177.007.343.01.498.01.155 0 .29-.003.404-.01a3.658 3.658 0 0 0-.195-.958 2.15 2.15 0 0 0-.426-.743 1.265 1.265 0 0 0-.21-.185.463.463 0 0 0-.275-.092zm-2.238 3.814c.494-.012.85-.03 1.067-.054a8.17 8.17 0 0 0 .871-.141 4.4 4.4 0 0 0 .65-.193c.177-.072.308-.14.391-.206a1.09 1.09 0 0 0 .11-.105l.083-.094h-.527c-.188 0-.37-.014-.548-.044a2.644 2.644 0 0 1-.5-.133c-.157-.06-.3-.133-.428-.222a1.493 1.493 0 0 1-.33-.305 1.716 1.716 0 0 1-.145-.227 1.385 1.385 0 0 1-.12-.308 1.855 1.855 0 0 1-.058-.391 2.328 2.328 0 0 1 .032-.477c.048-.268.12-.513.214-.734a2.63 2.63 0 0 1 .344-.592c.157-.205.332-.36.527-.464a1.27 1.27 0 0 1 .605-.157c.46 0 .877.204 1.252.61.16.178.302.383.426.617.123.233.223.482.3.748.076.266.128.542.156.827.028.285.026.567-.005.845a5.615 5.615 0 0 1-.141.593c-.02.07-.056.15-.104.24a1.848 1.848 0 0 1-.506.576 2.49 2.49 0 0 1-.634.35c-.256.1-.539.185-.848.253-.31.068-.64.119-.991.154-.235.023-.59.042-1.065.057h-.089l.01-1.023zM99.46 7.33l-.85.85-.856-.855.85-.85.856.855zm-5.06 6.814a1.852 1.852 0 0 1-.323-.568c-.919.96-2.367 1.44-4.347 1.44-1.057-.007-1.933-.133-2.627-.379-.693-.245-1.197-.632-1.51-1.16-.1-.17-.178-.347-.232-.527a2.714 2.714 0 0 1-.104-.54 2.992 2.992 0 0 1 .086-1.026 6.852 6.852 0 0 1 .25-.785 3.123 3.123 0 0 1 .151-.326l.903.496c0 .003-.016.038-.047.104a2.876 2.876 0 0 0-.104.26 4.394 4.394 0 0 0-.113.377 2.303 2.303 0 0 0-.039.928c.028.164.086.319.173.465.208.354.583.621 1.124.8.54.18 1.237.27 2.09.274.768 0 1.422-.067 1.961-.2.54-.134.988-.347 1.346-.64.16-.125.299-.262.415-.412.117-.15.216-.304.297-.464.082-.16.15-.322.207-.485.055-.164.106-.324.15-.48l.992.271-.057.232a7.95 7.95 0 0 0-.063.28 2.39 2.39 0 0 0-.057.521c.007.15.03.306.068.47.038.163.11.31.219.438.247.31.66.464 1.241.464.018 0 .045.002.079.005l-.013 1.02a.896.896 0 0 1-.066.003h-.041c-.905-.01-1.574-.296-2.009-.856zm-4.477-4.278l-.845.845-.855-.85.845-.85.855.855zm2.14.005l-.846.85-.855-.855.845-.845.856.85zm-11.546-3.11c.153 1.416.241 2.682.266 3.799.038 1.843.01 3.34-.084 4.487l-1.028-.057c.112-1.548.146-2.847.105-3.898-.07-1.687-.164-3.078-.282-4.174l1.023-.156zm-3.314 4.848c.098.323.19.643.277.96l.11.422a10.02 10.02 0 0 1 .193.864c.024.137.043.265.057.383l.01.13a2.952 2.952 0 0 1-.128 1.043c-.088.286-.212.56-.37.823a4.86 4.86 0 0 1-.563.754c-.218.24-.454.465-.71.675a8.7 8.7 0 0 1-1.672 1.072l-.454-.918c.365-.18.72-.39 1.064-.628a5.97 5.97 0 0 0 .921-.78c.27-.282.486-.581.65-.898.163-.316.245-.643.245-.98a30.064 30.064 0 0 0-.016-.203v.004a3.85 3.85 0 0 0-.052-.352 9.97 9.97 0 0 0-.083-.391 16.901 16.901 0 0 0-.204-.79 28.014 28.014 0 0 0-.266-.877l.991-.313zm.235-2.119l-.85.85-.856-.855.85-.85.856.855zm28.047 23.395c.508-.074.856-.186 1.045-.334a2.91 2.91 0 0 0 .731-.88 6.3 6.3 0 0 0 .52-1.243c.144-.466.279-.94.406-1.425l2.197.396c-.044.193-.098.417-.161.673a14.928 14.928 0 0 0-.302 1.603 3.1 3.1 0 0 0-.02.69.94.94 0 0 0 .152.467c.083.112.21.155.38.128.22-.017.42-.094.6-.232.178-.137.34-.314.483-.528a4.1 4.1 0 0 0 .38-.727c.11-.27.205-.548.285-.835.08-.286.146-.57.198-.85.052-.281.095-.538.128-.769l2.098.355a6.181 6.181 0 0 1-.058.612 23.5 23.5 0 0 0-.09.764 7.809 7.809 0 0 0-.042.801c0 .267.03.507.091.719a1.1 1.1 0 0 0 .302.516c.14.132.337.198.59.198a1.518 1.518 0 0 0 .901-.301c.126-.097.23-.21.31-.343.08-.132.12-.28.12-.446a3.66 3.66 0 0 0-.141-.946 10.13 10.13 0 0 0-.339-1.024 13.52 13.52 0 0 0-.417-.963c-.146-.303-.269-.559-.368-.768l2.049-1.148.174.376a17.716 17.716 0 0 1 .916 2.49c.094.342.171.691.232 1.05.06.357.09.704.09 1.04a4.54 4.54 0 0 1-.227 1.487c-.151.44-.38.815-.685 1.124a3.115 3.115 0 0 1-1.148.718c-.46.171-.999.26-1.615.265-.298 0-.568-.03-.81-.087a2.764 2.764 0 0 1-.653-.24 2.5 2.5 0 0 1-.516-.359 3.132 3.132 0 0 1-.4-.438 3.475 3.475 0 0 1-.426.459c-.151.135-.325.25-.52.347a2.97 2.97 0 0 1-.657.227 4.074 4.074 0 0 1-.826.09 2.88 2.88 0 0 1-.731-.07 2.432 2.432 0 0 1-.6-.227 2.279 2.279 0 0 1-.49-.359 3.73 3.73 0 0 1-.41-.467 2.866 2.866 0 0 1-.396.401 2.36 2.36 0 0 1-.529.326c-.204.094-.44.168-.71.223a4.76 4.76 0 0 1-.942.083h-.149v-2.619zm-6.518 0c.397 0 .778-.016 1.145-.05a3.63 3.63 0 0 0 .97-.21 1.71 1.71 0 0 0 .682-.454c.173-.196.265-.456.276-.781.006-.121.007-.222.005-.302a1.466 1.466 0 0 0-.046-.289 13.048 13.048 0 0 0-.12-.446l-.219-.78 2.404-.678c.105.265.201.614.29 1.05.088.434.154.91.198 1.428.01.166.03.336.058.513.027.176.073.338.136.487a1 1 0 0 0 .26.368c.074.064.217.112.43.144l.008 2.61c-.655-.054-1.108-.135-1.359-.243a3.233 3.233 0 0 1-.97-.632 3.68 3.68 0 0 1-.856.413c-.322.11-.665.2-1.028.269a10.42 10.42 0 0 1-1.124.148c-.385.03-.765.046-1.14.046v-2.61zm5.973 5.576l-1.586 1.595-1.57-1.57-1.553 1.553-1.602-1.594 1.586-1.595 1.57 1.57 1.552-1.553 1.603 1.594zm-6.633-2.965c-.91 0-1.679-.149-2.31-.446-.63-.298-1.144-.793-1.54-1.487-.782.666-1.728 1.159-2.838 1.478-1.11.32-2.405.48-3.886.48a19.276 19.276 0 0 1-2.491-.17c-.785-.107-1.5-.27-2.144-.487a7.012 7.012 0 0 1-1.693-.818 3.839 3.839 0 0 1-1.14-1.16 3.268 3.268 0 0 1-.372-1.013 4.817 4.817 0 0 1-.074-1.247c.027-.449.114-.925.26-1.43a8.92 8.92 0 0 1 .632-1.565l1.966 1.14c-.11.215-.212.424-.306.628a3.058 3.058 0 0 0-.157 2.173c.138.237.384.438.74.603.355.165.783.3 1.284.405.501.104 1.052.181 1.652.23a22.384 22.384 0 0 0 3.487.013c.517-.041.995-.107 1.433-.198.438-.09.834-.21 1.19-.355.355-.146.659-.324.912-.533a2.74 2.74 0 0 0 .57-.62 4.33 4.33 0 0 0 .38-.714c.105-.25.192-.514.26-.79.07-.274.137-.553.203-.833l2.313.586-.339 1.751c-.05.254-.037.488.037.703.075.214.203.4.384.557.182.157.413.281.694.372.281.09.6.136.959.136.12 0 .291.033.512.1v2.412a1.93 1.93 0 0 1-.512.099h-.066zm-10.277.636l1.834 1.834L88.03 39.8l-1.834-1.834 1.834-1.834zm-16.604-.612c.027-.451.055-.92.082-1.404.028-.485.051-.964.07-1.437.02-.474.032-.934.038-1.38a21.9 21.9 0 0 0-.017-1.23 243.97 243.97 0 0 0-.095-2.062c-.03-.592-.06-1.116-.09-1.574a55.76 55.76 0 0 0-.092-1.201 35.29 35.29 0 0 0-.095-.946 21.578 21.578 0 0 0-.107-.806c-.039-.25-.08-.51-.124-.78l2.553-.843c.12.738.219 1.481.293 2.23.074.75.13 1.467.17 2.152a66.156 66.156 0 0 1 .1 3.424l-.006 1.231a111.962 111.962 0 0 1-.053 2.809 38.23 38.23 0 0 1-.075 1.42l-2.552.397zm-9.633-.024a18.7 18.7 0 0 1-2.78-.186 10.766 10.766 0 0 1-2.151-.533c-1.25-.485-2.11-1.195-2.578-2.131v.008a3.655 3.655 0 0 1-.396-1.702c0-.27.033-.562.099-.875.066-.314.151-.62.256-.917.132-.347.275-.654.43-.922.154-.267.314-.549.479-.846l1.941 1.627a8.903 8.903 0 0 0-.607 1.033 4.698 4.698 0 0 0-.256.615 1.747 1.747 0 0 0-.103.541c0 .11.016.201.05.273.11.226.328.424.656.595.328.17.74.315 1.235.433.495.119 1.06.208 1.693.269.634.06 1.311.09 2.032.09a18.737 18.737 0 0 0 2.875-.244 17.459 17.459 0 0 0 1.578-.33 9.249 9.249 0 0 0 1.437-.491 6.7 6.7 0 0 0-.57-1.483c-.132-.256-.289-.53-.47-.822a43.51 43.51 0 0 0-.645-1l2.032-1.321a19.18 19.18 0 0 1 .748 1.334c.135.267.267.55.397.847.129.297.245.595.347.892.101.297.18.588.235.872.055.283.077.549.066.797a2.08 2.08 0 0 1-.48 1.226 4.09 4.09 0 0 1-1.118.93 7.694 7.694 0 0 1-1.537.669 14.54 14.54 0 0 1-1.735.438 17.984 17.984 0 0 1-3.16.314zm1.686 4.254l-1.553-1.553-1.57 1.57-1.586-1.595 1.603-1.594 1.553 1.553 1.57-1.57 1.585 1.595-1.602 1.594zm-1.545-.677l1.47 1.47-1.478 1.479-1.47-1.47 1.478-1.48z" fill="#FFF"/><g fill-rule="nonzero"><path d="M134 34.6c.2.3.4.5.6.8l3-2.4c-.2-.2-.4-.4-.6-.7-2.4-3.1-1.8-7.6 1.3-10 2.9-2.3 7-1.9 9.5.7v-.1c-5.7-6.3-14.4-3.8-14.4-3.8-4.6 10.7.6 15.5.6 15.5z" fill="#FFF"/><path d="M134.6 35.9l-.3-.3c-.2-.2-.4-.5-.7-.8-.2-.2-1.4-1.5-2.1-3.9-.4-1.5-.6-3.2-.4-5 .2-2.2.8-4.6 1.9-7l.1-.2.2-.1c.1 0 2.3-.7 5.2-.5 1.7.1 3.3.4 4.8 1 1.8.7 3.5 1.9 4.8 3.4v.1l-.6.5c-1.1-1.2-2.7-1.9-4.3-2.1-1.7-.1-3.3.4-4.6 1.4-2.9 2.3-3.5 6.5-1.2 9.4.2.2.4.5.6.7l.3.3-3.7 3.1zm-.9-16.4c-1 2.3-1.6 4.5-1.7 6.6-.1 1.7 0 3.2.4 4.7.7 2.4 1.9 3.6 1.9 3.6.1.2.2.3.4.5l2.4-1.9c-.1-.1-.2-.3-.3-.4-2.5-3.3-1.9-8 1.3-10.6 1.5-1.1 3.3-1.7 5.2-1.6.2 0 .5.1.7.1-.3-.2-.7-.3-1-.5-1.4-.6-2.9-.9-4.5-1-2.4-.1-4.3.3-4.8.5z" fill="#000"/><path d="M147.4 35.5l.7-1.3-3.1 1.1-.7-.6c-2.6.7-5.6-.2-7.3-2.5-2.2-2.9-1.9-6.9.7-9.4h-.1c-6.2 5.6-3.7 14.2-3.7 14.2 10.5 4.5 15.3-.6 15.3-.6.3-.2.5-.4.8-.6l-2.6-.3z" fill="#FFF"/><path d="M141.9 39.2c-.4 0-.9 0-1.3-.1-2.2-.2-4.5-.8-6.9-1.8l-.1-.1v-.1c0-.1-.6-2.2-.5-5.1.1-1.7.4-3.3 1-4.7.7-1.8 1.8-3.4 3.3-4.7l.4.4c-1.2 1.1-1.9 2.7-2.1 4.3-.1 1.7.4 3.3 1.4 4.6 1.7 2.1 4.4 3.1 7 2.4h.2l.7.5 3.7-1.3-.8 1.6 2.7.4-.5.4c-.3.2-.5.4-.8.6-.2.2-1.4 1.4-3.8 2.1-1.1.5-2.3.6-3.6.6zm-7.7-2.4c2.3 1 4.5 1.6 6.5 1.7 1.7.1 3.2 0 4.6-.4 2.4-.7 3.6-1.9 3.6-1.9.1-.1.2-.1.2-.2l-2.3-.3.5-1-2.5.9-.7-.6c-.6.1-1.1.2-1.7.2-2.2 0-4.4-1-5.8-2.8-1.1-1.4-1.7-3.2-1.5-5.1 0-.4.1-.9.2-1.3-.3.5-.5 1-.7 1.5-.6 1.4-.9 2.9-1 4.5 0 2.4.4 4.3.6 4.8z" fill="#000"/><path d="M151.3 21.2c-.2-.3-.4-.5-.6-.8l-3 2.4c.2.2.4.4.6.7 2.4 3.1 1.8 7.6-1.3 10-2.9 2.3-7 1.9-9.5-.7l.1.1c5.7 6.3 14.3 3.8 14.3 3.8 4.6-10.6-.6-15.5-.6-15.5z" fill="#FFF"/><path d="M147.8 37.5h-.9c-1.7-.1-3.3-.4-4.8-1-1.8-.7-3.4-1.8-4.7-3.3l-.1-.1.4-.4.1.1c1.1 1.2 2.7 1.9 4.3 2 1.7.1 3.4-.4 4.7-1.4 1.4-1.1 2.4-2.7 2.6-4.5.2-1.8-.3-3.6-1.4-5-.2-.2-.4-.4-.6-.7l-.2-.2 3.5-2.8.2.2c.2.2.4.5.7.8.2.2 1.4 1.4 2.1 3.9.4 1.5.6 3.2.4 4.9-.2 2.2-.8 4.5-1.9 7l-.1.1-.1-.1c-.1 0-1.8.5-4.2.5zm-7-2.4c.5.3 1 .5 1.5.7 1.4.6 2.9.9 4.5 1 2.4.1 4.3-.3 4.8-.4 1-2.3 1.6-4.5 1.8-6.6.1-1.7 0-3.3-.4-4.7-.7-2.4-1.9-3.6-1.9-3.7-.1-.2-.3-.4-.4-.5l-2.5 2c.1.2.3.3.4.5 1.2 1.6 1.7 3.5 1.5 5.5-.3 2-1.3 3.7-2.8 4.9-1.5 1.1-3.3 1.7-5.1 1.5-.6 0-1-.1-1.4-.2z" fill="#000"/><path d="M136.7 18.7c2.8-.2 7.1.2 10.8 3.9.3.3.6.6.8.9 2.2 2.9 1.9 6.9-.7 9.4h.1c6.2-5.6 3.7-14.2 3.7-14.2-8.4-3.7-13.2-1.2-14.7 0z" fill="#FFF"/><path d="M147.7 33.1l-.3-.4c1.2-1.2 1.9-2.7 2.1-4.4.1-1.7-.4-3.3-1.4-4.7-.2-.3-.5-.6-.8-.9-3.5-3.5-7.7-4-10.6-3.8l-.9.1.7-.5c1.7-1.2 6.5-3.8 14.9-.1h.1v.1c0 .1.6 2.2.5 5.1-.1 1.7-.4 3.3-1 4.7-.7 1.8-1.8 3.4-3.3 4.8zm-.1-10.7c.3.3.6.6.8.9 1.1 1.4 1.6 3.2 1.5 5 0 .6-.2 1.2-.3 1.7.4-.6.7-1.3 1-1.9.6-1.4.9-2.9 1-4.5.1-2.4-.3-4.3-.4-4.8-7.1-3-11.5-1.6-13.6-.4 2.9 0 6.7.7 10 4z" fill="#000"/><path d="M147 13.4c1.2-1.1 2.2-2.7 2.2-4.4-1.5-.2-3.4.5-4.7 1.6-1.1.9-2.2 2.6-2.2 4.2 1.7.4 3.5-.3 4.7-1.4z" fill="#FFF"/></g></g></svg>